<svg xmlns="http://www.w3.org/2000/svg" width="54" height="54" viewBox="0 0 54 54">
  <g id="그룹_3" data-name="그룹 3" transform="translate(-2924 -3149)">
    <rect id="사각형_50" data-name="사각형 50" width="54" height="54" transform="translate(2924 3149)" fill="none"/>
    <path id="패스_5" data-name="패스 5" d="M35.753,5.9s-5.5-12.1-19.985-1.65c0,0-10.084,4.217-6.967,20.535,0,0,4.217,10.818,4.4,14.485,0,0,.088,5.134-5,4.4,0,0-5.636-1.65-8.2-5.867,0,0,0,8.068,8.8,7.334,0,0,5.317.917,10.818-5.134a12.964,12.964,0,0,0-.184-12.1,9.264,9.264,0,0,1-1.558-6.418,22.745,22.745,0,0,1,4.308,7.884S25.119,36.889,22,40.739c0,0,6.051-1.283,7.334-14.668,0,0-1.1-10.267-5.317-15.034,0,0-4.584-9.717,4.767-8.8,0,0,4.4.55,6.967,3.667" transform="translate(2933 3153.341)" fill="#6aae27"/>
  </g>
</svg>
