<svg width="151" height="50" viewBox="0 0 151 50" fill="none" xmlns="http://www.w3.org/2000/svg">
<g clip-path="url(#clip0_27_82)">
<path d="M44.1717 38.0186C43.1399 37.6506 42.9444 37.4053 42.9444 36.9832C42.9444 36.5611 43.2412 36.2256 43.9472 36.2256C44.4649 36.2256 44.8088 36.3951 45.1853 36.7054L45.5546 36.2544C45.1202 35.9081 44.6785 35.7061 43.9834 35.7061C43.0204 35.7061 42.3687 36.1967 42.3687 37.0193C42.3687 37.7625 42.7452 38.1233 43.8603 38.5201C44.8052 38.8592 45.0912 39.1298 45.0912 39.606C45.0912 40.1508 44.664 40.49 43.9798 40.49C43.4476 40.49 42.9987 40.2446 42.6077 39.873L42.2275 40.2987C42.633 40.71 43.2593 41.0131 43.9617 41.0131C45.0369 41.0131 45.6705 40.3853 45.6705 39.5808C45.6705 38.7763 45.3193 38.4335 44.1753 38.0222L44.1717 38.0186Z" fill="white"/>
<path d="M48.0089 36.994C47.5056 36.994 47.0495 37.1167 46.7092 37.3007L46.9191 37.7481C47.2341 37.5641 47.5672 37.4522 47.9727 37.4522C48.5374 37.4522 48.8126 37.73 48.8126 38.3073V38.7618C48.5845 38.6356 48.2333 38.5382 47.8459 38.5382C47.0821 38.5382 46.3652 38.9061 46.3652 39.772C46.3652 40.7028 46.9988 41.0059 47.5998 41.0059C48.1573 41.0059 48.5374 40.7461 48.8126 40.4539V40.9265H49.3629V38.2351C49.3629 37.3404 48.8415 36.9868 48.0089 36.9868V36.994ZM48.809 39.9849C48.5736 40.306 48.1971 40.5621 47.6975 40.5621C47.2232 40.5621 46.9047 40.3132 46.9047 39.7395C46.9047 39.2561 47.245 38.9819 47.8134 38.9819C48.284 38.9819 48.5555 39.0685 48.809 39.2056V39.9885V39.9849Z" fill="white"/>
<path d="M54.9168 38.6718V40.9302H55.4671V38.5816C55.4671 37.4559 54.9747 36.9941 54.1855 36.9941C53.5555 36.9941 53.2406 37.2864 53.0125 37.6544C52.8278 37.2864 52.4984 36.9941 51.9517 36.9941C51.4956 36.9941 51.1697 37.2142 50.9706 37.5461V37.0771H50.4131V40.9338H50.9706V38.6754C50.9706 37.8203 51.3001 37.4704 51.8323 37.4704C52.3644 37.4704 52.6649 37.7915 52.6649 38.6754V40.9338H53.2188V38.6754C53.2188 37.8203 53.5555 37.4704 54.0805 37.4704C54.638 37.4704 54.9131 37.7915 54.9131 38.6754L54.9168 38.6718Z" fill="white"/>
<path d="M57.6867 38.6859C57.0314 38.39 56.8359 38.2638 56.8359 37.9355C56.8359 37.6541 57.0676 37.4592 57.4767 37.4592C57.8858 37.4592 58.1392 37.5675 58.4397 37.8056L58.7474 37.3979C58.4542 37.1562 58.0415 36.9902 57.5129 36.9902C56.8069 36.9902 56.3037 37.3871 56.3037 37.9715C56.3037 38.5885 56.6259 38.823 57.4043 39.1549C58.0885 39.4471 58.3166 39.6239 58.3166 39.9414C58.3166 40.3166 58.0668 40.5367 57.5346 40.5367C57.1509 40.5367 56.7888 40.3815 56.4811 40.111L56.1553 40.5114C56.5245 40.8072 56.9879 41.0057 57.5201 41.0057C58.1899 41.0057 58.8452 40.6774 58.8452 39.9161C58.8452 39.227 58.418 39.0142 57.683 38.6823L57.6867 38.6859Z" fill="white"/>
<path d="M62.0743 39.3281C62.0743 40.1723 61.6508 40.5295 61.1186 40.5295C60.4959 40.5295 60.2026 40.1579 60.2026 39.3281V37.0732H59.6523V39.4219C59.6523 40.5295 60.1918 41.0093 61.0063 41.0093C61.4951 41.0093 61.8535 40.782 62.0743 40.4573V40.9299H62.6282V37.0732H62.0743V39.3281Z" fill="white"/>
<path d="M66.5381 40.9302V38.5816C66.5381 37.4704 65.9987 36.9941 65.1805 36.9941C64.6954 36.9941 64.3333 37.2214 64.1161 37.5461V37.0771H63.5586V40.9338H64.1161V38.6754C64.1161 37.8311 64.5325 37.4704 65.0683 37.4704C65.6873 37.4704 65.9842 37.8456 65.9842 38.6754V40.9338H66.5381V40.9302Z" fill="white"/>
<path d="M68.2798 41.9257L68.4572 42.3442C69.8945 42.3009 70.4158 41.7417 70.4158 40.58V37.0696H69.8619V37.5025C69.5904 37.1923 69.2573 36.9902 68.7722 36.9902C67.9612 36.9902 67.3096 37.6937 67.3096 39.0611C67.3096 40.4284 67.925 41.0057 68.6962 41.0057C69.2211 41.0057 69.5904 40.7459 69.8619 40.4537V40.6521C69.8619 41.5504 69.5687 41.8896 68.2762 41.922L68.2798 41.9257ZM68.841 40.5294C68.2291 40.5294 67.8599 40.0244 67.8599 39.0539C67.8599 38.0184 68.1748 37.4665 68.8192 37.4665C69.279 37.4665 69.6519 37.7226 69.8655 38.0437V39.9739C69.594 40.313 69.2537 40.5294 68.841 40.5294Z" fill="white"/>
<path d="M76.5189 38.3219C76.5189 36.5577 75.5196 35.7856 74.1656 35.7856H72.8008V40.9303H74.0643C75.4436 40.9303 76.5189 40.1871 76.5189 38.3219ZM73.3764 36.3052H74.1222C75.3097 36.3052 75.9432 37.0267 75.9432 38.3399C75.9432 39.8191 75.2481 40.4072 74.1367 40.4072H73.3764V36.3052Z" fill="white"/>
<path d="M77.9924 37.5495V37.0733H77.4385V40.93H77.9924V38.6643C77.9924 37.9284 78.2965 37.499 78.8359 37.499C79.093 37.499 79.2595 37.5568 79.4152 37.647L79.5527 37.0914C79.4224 37.0336 79.2378 36.9976 78.9482 36.9976C78.5318 36.9976 78.1662 37.2465 77.9924 37.5532V37.5495Z" fill="white"/>
<path d="M82.8618 40.562L82.6012 40.1652C82.2464 40.3997 81.9821 40.5332 81.5295 40.5332C80.8996 40.5332 80.505 40.01 80.4543 39.1911H83.032C83.0501 39.1009 83.0573 39.0215 83.0573 38.8916C83.0573 37.7913 82.507 36.9976 81.497 36.9976C80.5774 36.9976 79.9004 37.7588 79.9004 38.9818C79.9004 40.5007 80.762 41.013 81.4716 41.013C82.0545 41.013 82.3948 40.8579 82.8618 40.5656V40.562ZM81.497 37.4702C82.174 37.4702 82.4998 37.9933 82.5432 38.7401H80.4543C80.5195 37.8779 80.9213 37.4702 81.497 37.4702Z" fill="white"/>
<path d="M84.9036 41.0093C85.4575 41.0093 85.8376 40.7495 86.1092 40.4573V40.9299H86.6631V38.2385C86.6631 37.3438 86.1417 36.9902 85.3091 36.9902C84.8058 36.9902 84.3497 37.1129 84.0094 37.2969L84.2157 37.7443C84.5343 37.5603 84.8638 37.4484 85.2692 37.4484C85.8376 37.4484 86.1092 37.7262 86.1092 38.3035V38.758C85.8811 38.6318 85.5335 38.5344 85.1462 38.5344C84.3786 38.5344 83.6582 38.9024 83.6582 39.7682C83.6582 40.699 84.2954 41.0021 84.9 41.0021L84.9036 41.0093ZM85.1172 38.9781C85.5878 38.9781 85.863 39.0647 86.1128 39.2018V39.9847C85.8775 40.3058 85.5009 40.5619 85.0013 40.5619C84.5307 40.5619 84.2085 40.313 84.2085 39.7394C84.2085 39.2559 84.5524 38.9817 85.1172 38.9817V38.9781Z" fill="white"/>
<path d="M92.2167 38.6718V40.9302H92.7706V38.5816C92.7706 37.4559 92.2783 36.9941 91.4891 36.9941C90.8627 36.9941 90.5441 37.2864 90.3197 37.6544C90.135 37.2864 89.8056 36.9941 89.2589 36.9941C88.7992 36.9941 88.4769 37.2142 88.2778 37.5461V37.0771H87.7275V40.9338H88.2778V38.6754C88.2778 37.8203 88.6109 37.4704 89.1431 37.4704C89.6753 37.4704 89.9794 37.7915 89.9794 38.6754V40.9338H90.5297V38.6754C90.5297 37.8203 90.8664 37.4704 91.3949 37.4704C91.9525 37.4704 92.2276 37.7915 92.2276 38.6754L92.2167 38.6718Z" fill="white"/>
<path d="M44.1717 45.6708C43.1362 45.3028 42.948 45.0611 42.948 44.6354C42.948 44.2096 43.2449 43.8813 43.9508 43.8813C44.4685 43.8813 44.8161 44.0473 45.189 44.3576L45.5582 43.9102C45.1238 43.5675 44.6785 43.3618 43.987 43.3618C43.0204 43.3618 42.3724 43.8453 42.3724 44.675C42.3724 45.4182 42.7489 45.7754 43.8639 46.1723C44.8088 46.515 45.0948 46.782 45.0948 47.2618C45.0948 47.803 44.6676 48.1421 43.9798 48.1421C43.4476 48.1421 42.9987 47.8968 42.6077 47.5252L42.2275 47.9509C42.633 48.3622 43.2593 48.6616 43.9617 48.6616C45.0369 48.6616 45.6668 48.0375 45.6668 47.2293C45.6668 46.4212 45.3157 46.0821 44.1753 45.6708H44.1717Z" fill="white"/>
<path d="M48.0166 45.1224C48.4076 45.1224 48.6646 45.2595 48.9434 45.5121L49.2764 45.1008C48.9723 44.8338 48.5705 44.6426 48.0528 44.6426C47.2418 44.6426 46.3838 45.2451 46.3838 46.6701C46.3838 48.0158 47.1622 48.658 48.0129 48.658C48.556 48.658 48.9325 48.4524 49.2583 48.1205L48.9253 47.7705C48.661 48.0267 48.4112 48.1782 48.0347 48.1782C47.3504 48.1782 46.9413 47.5685 46.9413 46.6196C46.9413 45.6708 47.4083 45.1152 48.0129 45.1152L48.0166 45.1224Z" fill="white"/>
<path d="M51.6405 44.6463C51.1553 44.6463 50.7897 44.8736 50.5688 45.1983V43.3872H50.0186V48.5896H50.5688V46.3311C50.5688 45.4869 50.9924 45.1261 51.5282 45.1261C52.1509 45.1261 52.4442 45.4977 52.4442 46.3311V48.5896H52.9981V46.2337C52.9981 45.1261 52.4587 44.6463 51.6405 44.6463Z" fill="white"/>
<path d="M55.4671 44.646C54.5258 44.646 53.7764 45.3495 53.7764 46.6591C53.7764 47.9687 54.4968 48.665 55.4381 48.665C56.3794 48.665 57.136 47.9399 57.136 46.6303C57.136 45.3206 56.4083 44.646 55.4671 44.646ZM55.4562 48.1852C54.7828 48.1852 54.3303 47.6585 54.3303 46.6447C54.3303 45.6309 54.7828 45.1258 55.4562 45.1258C56.1296 45.1258 56.5821 45.6309 56.5821 46.6447C56.5821 47.6585 56.126 48.1852 55.4562 48.1852Z" fill="white"/>
<path d="M58.5227 43.3833H57.9688V48.5857H58.5227V43.3833Z" fill="white"/>
<path d="M61.0531 44.646C60.5499 44.646 60.0937 44.7723 59.757 44.9563L59.9634 45.4072C60.282 45.2232 60.615 45.1114 61.0205 45.1114C61.5853 45.1114 61.8604 45.3928 61.8604 45.9628V46.421C61.6323 46.2947 61.2848 46.1973 60.8974 46.1973C60.1299 46.1973 59.4131 46.5653 59.4131 47.4348C59.4131 48.3656 60.0466 48.665 60.6512 48.665C61.2051 48.665 61.5853 48.4089 61.8604 48.1167V48.5893H62.4143V45.9015C62.4143 44.9996 61.8894 44.6496 61.0567 44.6496L61.0531 44.646ZM61.8568 47.6368C61.6251 47.9543 61.2413 48.2141 60.7454 48.2141C60.2747 48.2141 59.9561 47.9651 59.9561 47.3915C59.9561 46.9045 60.2964 46.6375 60.8648 46.6375C61.3355 46.6375 61.607 46.7169 61.8568 46.8576V47.6368Z" fill="white"/>
<path d="M64.0178 45.2056V44.7221H63.4639V48.5824H64.0178V46.3168C64.0178 45.5844 64.3146 45.1479 64.8577 45.1479C65.1184 45.1479 65.2849 45.2056 65.4406 45.2958L65.5818 44.7366C65.4478 44.6788 65.2668 44.6392 64.9772 44.6392C64.5644 44.6392 64.1915 44.8881 64.0214 45.202L64.0178 45.2056Z" fill="white"/>
<path d="M67.704 46.3416C67.0487 46.0458 66.8496 45.9123 66.8496 45.5912C66.8496 45.3134 67.0849 45.115 67.4904 45.115C67.8958 45.115 68.1565 45.2268 68.457 45.4614L68.7647 45.0573C68.4678 44.8156 68.0588 44.646 67.5266 44.646C66.8242 44.646 66.3138 45.0429 66.3138 45.6309C66.3138 46.219 66.6396 46.4823 67.4143 46.8107C68.0986 47.1029 68.3267 47.2833 68.3267 47.5971C68.3267 47.976 68.0769 48.1924 67.5483 48.1924C67.1609 48.1924 66.8025 48.0373 66.4912 47.7667L66.1689 48.1708C66.5382 48.4666 67.0016 48.6614 67.5338 48.6614C68.2036 48.6614 68.8588 48.3295 68.8588 47.5755C68.8588 46.8828 68.4316 46.6736 67.7003 46.3416H67.704Z" fill="white"/>
<path d="M71.3853 44.6463C70.8929 44.6463 70.5345 44.8736 70.3137 45.1983V43.3872H69.7598V48.5896H70.3137V46.3311C70.3137 45.4869 70.7336 45.1261 71.2731 45.1261C71.8921 45.1261 72.1854 45.4977 72.1854 46.3311V48.5896H72.7393V46.2337C72.7393 45.1261 72.2035 44.6463 71.3853 44.6463Z" fill="white"/>
<path d="M74.3833 44.7222H73.833V48.5825H74.3833V44.7222Z" fill="white"/>
<path d="M74.1187 43.25C73.8942 43.25 73.7168 43.4268 73.7168 43.6505C73.7168 43.8741 73.8942 44.0401 74.1187 44.0401C74.325 44.0401 74.5024 43.8597 74.5024 43.6505C74.5024 43.4268 74.325 43.25 74.1187 43.25Z" fill="white"/>
<path d="M77.2177 44.646C76.6964 44.646 76.3271 44.9058 76.052 45.198V44.7254H75.498V50.0035H76.052V48.1527C76.3235 48.4594 76.6566 48.665 77.1453 48.665C77.9526 48.665 78.6043 47.9579 78.6043 46.5942C78.6043 45.2305 77.9888 44.646 77.2177 44.646ZM77.0982 48.1852C76.6421 48.1852 76.2656 47.9291 76.052 47.6044V45.6778C76.3235 45.3423 76.6638 45.1222 77.0765 45.1222C77.692 45.1222 78.0612 45.6273 78.0612 46.5978C78.0612 47.6332 77.7426 48.1816 77.1019 48.1816L77.0982 48.1852Z" fill="white"/>
<path d="M81.5336 43.9609H83.9882V43.4414H80.958V48.5861H81.5336V46.1869H82.9492V45.6674H81.5336V43.9609Z" fill="white"/>
<path d="M85.6679 44.646C84.7267 44.646 83.9736 45.3495 83.9736 46.6591C83.9736 47.9687 84.6977 48.665 85.639 48.665C86.5803 48.665 87.3369 47.9399 87.3369 46.6303C87.3369 45.3206 86.6165 44.646 85.6679 44.646ZM85.6571 48.1852C84.9837 48.1852 84.5384 47.6585 84.5384 46.6447C84.5384 45.6309 84.9873 45.1258 85.6571 45.1258C86.3268 45.1258 86.7866 45.6309 86.7866 46.6447C86.7866 47.6585 86.3305 48.1852 85.6571 48.1852Z" fill="white"/>
<path d="M90.3888 46.9806C90.3888 47.8248 89.9725 48.1856 89.433 48.1856C88.814 48.1856 88.5171 47.814 88.5171 46.9806V44.7222H87.9668V47.0744C87.9668 48.182 88.5062 48.6618 89.3244 48.6618C89.8059 48.6618 90.168 48.4382 90.3888 48.1135V48.5861H90.9463V44.7258H90.3888V46.9842V46.9806Z" fill="white"/>
<path d="M93.4949 44.6462C93.0098 44.6462 92.6478 44.8735 92.427 45.1982V44.7256H91.873V48.5859H92.427V46.3274C92.427 45.4832 92.8469 45.1224 93.3863 45.1224C94.0054 45.1224 94.2987 45.494 94.2987 46.3274V48.5859H94.8526V46.23C94.8526 45.1224 94.3131 44.6426 93.4949 44.6426V44.6462Z" fill="white"/>
<path d="M98.1793 45.1619C97.9041 44.8517 97.5747 44.6424 97.0859 44.6424C96.275 44.6424 95.627 45.3459 95.627 46.7169C95.627 48.0878 96.2388 48.6615 97.0135 48.6615C97.5385 48.6615 97.9041 48.4053 98.1757 48.1131V48.5857H98.7296V43.3833H98.1757V45.1619H98.1793ZM98.1793 47.6296C97.9041 47.9652 97.5674 48.1852 97.1547 48.1852C96.5429 48.1852 96.1736 47.6801 96.1736 46.7097C96.1736 45.6706 96.4886 45.1222 97.133 45.1222C97.5892 45.1222 97.9621 45.3784 98.1793 45.7031V47.626V47.6296Z" fill="white"/>
<path d="M101.076 44.646C100.576 44.646 100.12 44.7723 99.7799 44.9563L99.9826 45.4072C100.301 45.2232 100.634 45.1114 101.04 45.1114C101.605 45.1114 101.876 45.3928 101.876 45.9628V46.421C101.648 46.2947 101.3 46.1973 100.909 46.1973C100.146 46.1973 99.4287 46.5653 99.4287 47.4348C99.4287 48.3656 100.066 48.665 100.67 48.665C101.224 48.665 101.605 48.4089 101.876 48.1167V48.5893H102.43V45.9015C102.43 44.9996 101.909 44.6496 101.072 44.6496L101.076 44.646ZM101.88 47.6368C101.644 47.9543 101.271 48.2141 100.765 48.2141C100.298 48.2141 99.9826 47.9651 99.9826 47.3915C99.9826 46.9045 100.319 46.6375 100.888 46.6375C101.358 46.6375 101.633 46.7169 101.88 46.8576V47.6368Z" fill="white"/>
<path d="M104.197 43.3833H103.639V44.7218H103.161V45.1872H103.639V47.7884C103.639 48.427 103.9 48.6578 104.381 48.6578C104.671 48.6578 104.877 48.6146 105.091 48.528L105.131 48.0517C104.953 48.1239 104.808 48.16 104.584 48.16C104.291 48.16 104.197 48.0409 104.197 47.6982V45.1872H105.156V44.7218H104.197V43.3833Z" fill="white"/>
<path d="M106.412 43.25C106.184 43.25 106.003 43.4268 106.003 43.6505C106.003 43.8741 106.184 44.0401 106.412 44.0401C106.618 44.0401 106.792 43.8597 106.792 43.6505C106.792 43.4268 106.615 43.25 106.412 43.25Z" fill="white"/>
<path d="M106.677 44.7222H106.123V48.5825H106.677V44.7222Z" fill="white"/>
<path d="M109.203 44.646C108.262 44.646 107.509 45.3495 107.509 46.6591C107.509 47.9687 108.229 48.665 109.174 48.665C110.119 48.665 110.868 47.9399 110.868 46.6303C110.868 45.3206 110.144 44.646 109.203 44.646ZM109.189 48.1852C108.519 48.1852 108.066 47.6585 108.066 46.6447C108.066 45.6309 108.519 45.1258 109.189 45.1258C109.858 45.1258 110.318 45.6309 110.318 46.6447C110.318 47.6585 109.862 48.1852 109.189 48.1852Z" fill="white"/>
<path d="M113.291 44.6462C112.805 44.6462 112.443 44.8735 112.219 45.1982V44.7256H111.665V48.5859H112.219V46.3274C112.219 45.4832 112.639 45.1224 113.178 45.1224C113.797 45.1224 114.094 45.494 114.094 46.3274V48.5859H114.645V46.23C114.645 45.1224 114.105 44.6426 113.291 44.6426V44.6462Z" fill="white"/>
<path d="M63.5255 25.6587C61.3026 25.6623 59.4707 27.394 59.4707 29.5659C59.4707 31.7378 61.3026 33.4515 63.5255 33.4587C65.7701 33.4515 67.5838 31.7161 67.5838 29.5659C67.5838 27.4157 65.7701 25.6623 63.5255 25.6587ZM63.4712 31.6764C62.309 31.6764 61.4329 30.7312 61.4329 29.5659C61.4329 28.4006 62.3706 27.4373 63.5291 27.4373C64.6876 27.4373 65.5927 28.3826 65.5927 29.5659C65.5927 30.7492 64.6441 31.6764 63.4748 31.6764H63.4712Z" fill="white"/>
<path d="M44.9211 22.9708C45.5402 23.5806 46.2498 24.1145 46.9485 24.4572L47.0209 24.4969L48.2192 23.0863L48.1034 23.0214C46.9666 22.408 46.076 21.6324 45.4931 20.6547C44.9139 19.6914 44.617 18.573 44.617 17.2345V15.979H42.4738V17.101C42.4738 18.5513 42.1443 19.6914 41.5253 20.6907C40.8338 21.7983 39.8092 22.6894 38.4987 23.5156L38.3828 23.5878L39.6825 24.9299L39.7549 24.8902C40.5297 24.4717 41.3515 23.8259 42.0647 23.1043C42.6838 22.473 43.2196 21.7983 43.5454 21.1598C43.8604 21.7875 44.3419 22.4261 44.9211 22.9745V22.9708Z" fill="white"/>
<path d="M42.6006 32.5352H51.5717V26.4272H42.6006V32.5352ZM44.6171 28.1518H49.5552V30.8107H44.6171V28.1518Z" fill="white"/>
<path d="M72.5117 32.5352H82.6559V26.4272H72.5117V32.5352ZM74.5065 28.1518H80.6647V30.8107H74.5065V28.1518Z" fill="white"/>
<path d="M51.6081 15.6182H49.6133V25.7271H51.6081V21.2535H53.9432V19.4568H51.6081V15.6182Z" fill="white"/>
<path d="M92.9666 23.4866C93.6218 24.053 94.3712 24.5292 95.0772 24.8359L95.1496 24.8683L96.2285 23.4144L96.1126 23.3567C95.0845 22.8335 94.1685 22.1842 93.5096 21.3904C92.8399 20.5823 92.4416 19.6082 92.4416 18.4357V18.0929H95.4103V16.354H87.3514V18.0929H90.3165V18.5114C90.3165 19.5793 89.9617 20.5751 89.3716 21.4373C88.6801 22.4728 87.67 23.3062 86.6889 23.8473L86.5586 23.9159L87.8836 25.2832L87.956 25.2471C88.6692 24.8431 89.4585 24.2334 90.1319 23.5479C90.6713 22.9851 91.1564 22.3898 91.4533 21.7945C91.8117 22.3718 92.362 22.949 92.9702 23.4866H92.9666Z" fill="white"/>
<path d="M107.394 28.1913H114.645V32.5314H116.658V26.4668H107.394V28.1913Z" fill="white"/>
<path d="M112.397 21.2391C112.397 20.283 111.966 19.4027 111.329 18.7317H113.32V17.0108H109.519V15.1167H107.358V17.0108H103.466V18.7317H105.5C104.878 19.4027 104.447 20.2758 104.447 21.2391C104.447 23.3713 106.21 25.103 108.415 25.1102C110.62 25.103 112.394 23.3713 112.397 21.2391ZM106.369 21.1597C106.369 19.98 107.369 18.9806 108.415 18.9806C109.461 18.9806 110.457 19.9836 110.46 21.1597C110.46 22.3214 109.461 23.3244 108.415 23.328C107.365 23.3244 106.373 22.3214 106.369 21.1597Z" fill="white"/>
<path d="M116.658 15.6182H114.667V25.7632H116.658V21.8921H119.001V20.0954H116.658V15.6182Z" fill="white"/>
<path d="M99.7617 15.6182H97.7705V25.7632H99.7617V21.2535H102.1V19.4568H99.7617V15.6182Z" fill="white"/>
<path d="M65.9623 18.627H62.8271V20.4057H65.9623V26.0843H67.9571V15.6182H65.9623V18.627Z" fill="white"/>
<path d="M60.8974 23.2342C61.5201 23.8403 62.2478 24.3743 62.9429 24.735L63.0189 24.7783L64.2173 23.3677L64.1014 23.3028C62.9646 22.7075 62.0921 21.9354 61.5057 20.9721C60.9119 20.0161 60.615 18.8544 60.615 17.5159V15.979H58.4682V17.386C58.4682 18.8364 58.1424 19.9728 57.5378 20.9541C56.8499 22.0797 55.8036 22.9781 54.4931 23.797L54.3809 23.8692L55.6878 25.2149L55.753 25.1716C56.5241 24.7495 57.3278 24.1398 58.041 23.4435C58.6854 22.8049 59.2212 22.1086 59.5471 21.4412C59.8548 22.0509 60.3254 22.6714 60.8974 23.2378V23.2342Z" fill="white"/>
<path d="M95.4861 25.6587C93.2632 25.6623 91.4314 27.394 91.4277 29.5659C91.4314 31.7161 93.2596 33.4515 95.4861 33.4587C97.7271 33.4515 99.5445 31.7161 99.5445 29.5659C99.5445 27.4157 97.7271 25.6623 95.4861 25.6587ZM95.4282 31.6764C94.2697 31.6764 93.3863 30.7312 93.3863 29.5659C93.3863 28.4006 94.3204 27.4373 95.4861 27.4373C96.6519 27.4373 97.5461 28.3826 97.5497 29.5659C97.5497 30.7276 96.5976 31.6764 95.4282 31.6764Z" fill="white"/>
<path d="M74.9404 21.4156H76.9352V16.2529H71.5518V17.9702H74.9404V21.4156Z" fill="white"/>
<path d="M80.9289 21.4156H82.9274V16.2529H77.5439V17.9702H80.9289V21.4156Z" fill="white"/>
<path d="M131.776 20.1892H130.1V15.8996H128.214V32.0984H130.1V22.1374H131.776V32.5314H133.731V15.6182H131.776V20.1892Z" fill="white"/>
<path d="M125.448 22.4296C124.999 21.4519 124.814 20.3587 124.814 19.0166V18.3781H127.077V16.5562H120.502V18.3781H122.837V19.0527C122.837 20.3227 122.671 21.3617 122.269 22.325C121.802 23.4326 121.016 24.4283 119.764 25.4962L119.677 25.5756L120.915 26.7986L120.991 26.7409C121.614 26.2827 122.265 25.6189 122.808 24.9334C123.268 24.3561 123.655 23.7572 123.898 23.2305C124.148 23.7428 124.539 24.3309 124.995 24.8793C125.524 25.5214 126.121 26.1312 126.693 26.4955L126.769 26.5461L127.812 25.305L127.728 25.2292C126.606 24.2551 125.911 23.3857 125.455 22.426L125.448 22.4296Z" fill="white"/>
<path d="M69.8828 23.8184H76.5044V25.745H78.6657V23.8184H85.3923V22.0903H69.8828V23.8184Z" fill="white"/>
<path d="M145.088 23.2665H138.347V18.1543H143.481V16.354H136.327V25.0126H145.088V23.2665Z" fill="white"/>
<path d="M141.276 27.1416H139.26V32.5316H148.691V30.7566H141.276V27.1416Z" fill="white"/>
<path d="M148.644 20.3012V15.6147H146.652V28.094H148.644V22.0979H151V20.3012H148.644Z" fill="white"/>
<path d="M42.2885 10.3976L37.1223 8.26539L42.2885 6.1332L41.3689 3.92886L36.2064 6.06104L38.346 0.912764L36.1303 0L33.9944 5.14828L31.8547 0L29.6391 0.912764L31.7787 6.06104L26.6161 3.92886L25.7002 6.1332L30.8628 8.26539L25.7002 10.3976L26.6161 12.6019L31.7787 10.4697L29.6391 15.618L31.8547 16.5308L33.9944 11.3861L36.1303 16.5308L38.346 15.6144L36.2064 10.4697L41.3689 12.6019L42.2885 10.3976Z" fill="white"/>
<path d="M8.86206 24.7602H12.2977V15.6182H0.549805V18.6992H8.86206V24.7602Z" fill="white"/>
<path d="M22.2654 24.7602H25.7011V15.6182H13.9531V18.6992H22.2654V24.7602Z" fill="white"/>
<path d="M0 29.4902H22.265V34.1983H25.7007V26.4092H0V29.4902Z" fill="white"/>
<path d="M8.3125 48.5857H25.7009V35.7817H8.3125V48.5857ZM11.7446 38.8664H22.2652V45.5083H11.7446V38.8664Z" fill="white"/>
</g>
<defs>
<clipPath id="clip0_27_82">
<rect width="151" height="50" fill="white"/>
</clipPath>
</defs>
</svg>
