<svg width="120" height="26" viewBox="0 0 120 26" fill="none" xmlns="http://www.w3.org/2000/svg">
<path d="M119.899 13.191L116.379 13.1323V16.401C116.379 20.6117 115.843 23.7032 115.586 24.6151C115.415 24.8809 115.028 25.0281 114.792 24.9395C114.642 24.2034 114.342 21.9066 114.342 18.1077V3.38614C114.342 2.76862 113.076 1.50231 112.604 1.29646C112.475 1.23654 112.883 0.589049 113.011 0.589049C113.977 0.589049 116.508 1.38375 116.444 2.00258C116.4 2.41426 116.379 2.91583 116.379 3.44607V11.866L119.039 10.4225C119.276 10.304 120.327 13.1896 119.899 13.1896M112.604 14.7817C112.969 15.4891 111.981 18.4907 111.617 17.7859C111.101 16.7841 109.687 13.8397 108.42 11.8673C106.725 15.1061 104.622 17.726 102.735 19.1108C102.498 19.0822 102.219 18.6093 102.219 18.3161C104.558 15.4591 107.197 10.4538 108.313 5.89011C108.377 5.62564 107.584 4.82964 107.24 4.53651C107.133 4.44792 107.606 3.94634 107.734 3.94634C108.377 3.94634 110.137 4.94819 110.566 5.35987C110.802 5.59698 110.823 5.74289 110.716 6.12461C110.244 7.80391 109.622 9.39332 108.914 10.8668C110.501 12.3676 112.26 14.1042 112.605 14.7817M101.232 13.4567L97.6917 13.3681V16.401C97.6917 20.6117 97.198 23.7032 96.9189 24.6151C96.748 24.8809 96.3616 25.0281 96.1461 24.9395C95.9752 24.2034 95.6961 21.9066 95.6961 18.1077V3.38614C95.6961 2.76862 94.4297 1.56093 93.9579 1.29646C93.8506 1.23654 94.237 0.589049 94.3652 0.589049C95.3306 0.589049 97.798 1.38375 97.7543 2.00258C97.7334 2.41426 97.6907 2.91583 97.6907 3.44607V12.1305L100.373 10.7183C100.63 10.571 101.682 13.4567 101.232 13.4567ZM89.7315 14.8989C90.7178 14.8989 91.4479 13.9557 91.4479 12.5135C91.4479 11.0713 90.7615 10.0981 89.7315 10.0981C88.7014 10.0981 88.015 11.0713 88.015 12.5135C88.015 13.9557 88.7014 14.8989 89.7315 14.8989ZM86.3841 2.6201C86.3613 2.50285 86.4695 2.08986 86.5977 2.11853C87.3049 2.29571 88.0141 2.47158 88.915 2.6201L91.1032 2.9445C91.2969 2.97316 92.1333 4.56387 91.576 4.56387H88.2714C87.7141 4.56387 86.4259 2.88587 86.3831 2.6201M84.1949 6.2132C84.174 6.12461 84.3022 5.80152 84.3658 5.83018C84.7313 6.00736 86.0395 6.06468 87.2841 6.03602L91.7469 5.9774C93.0342 5.94873 93.4206 5.06414 93.6133 5.06414C93.8278 5.06414 94.6433 6.62358 94.6433 7.331C94.6433 7.44955 94.5569 7.53684 94.4069 7.53684C94.1924 7.53684 92.9478 7.44955 91.9614 7.44955L87.1549 7.47821C86.3831 7.47821 85.8686 7.71271 85.6322 8.00845C85.0313 7.77395 84.2803 6.53629 84.1949 6.2119M94.8598 18.2549C92.9279 19.4626 89.2378 20.17 86.7059 20.6104C86.0195 20.7289 85.6123 20.9048 85.2041 21.2292C84.5604 20.9921 83.6168 19.6971 83.5304 19.1968C83.5513 19.0509 83.6376 18.9037 83.7013 18.8138C84.4104 18.8138 85.4395 18.8425 86.6841 18.7552C87.4568 18.6966 88.1859 18.6366 88.8505 18.5493L88.7214 16.0167C87.0913 15.6337 86.0822 14.3074 86.0822 12.4822C86.0822 10.4811 87.3486 9.12624 89.3441 8.97903C89.365 8.86178 89.3868 8.77319 89.3868 8.65463C89.3868 8.42013 89.3441 8.15566 89.1077 7.91855C89.1077 7.35966 90.395 7.91855 90.395 8.21299C90.395 8.33154 90.2878 8.68329 90.2242 8.97772C92.176 9.1549 93.3997 10.5098 93.3997 12.4809C93.3997 14.3061 92.3478 15.6324 90.7377 16.0154L90.6523 18.3122C92.6905 17.9878 94.0642 17.5449 94.986 17.1332C95.1797 17.0459 95.0933 18.1038 94.8588 18.2523M70.4627 3.91638L70.4418 8.83311H75.4411L75.5702 3.91638H70.4627ZM67.2236 2.82594C67.2027 2.67873 67.5027 2.17845 67.6527 2.17845C68.0182 2.17845 69.3045 2.23708 70.1419 2.44292H74.9047C75.5047 2.44292 75.8274 2.32437 76.0629 2.03124C76.3202 1.91269 77.9948 2.26574 77.9521 2.64876L77.2429 8.56735C77.5438 8.95037 77.9521 9.7151 77.9521 10.1281C77.9521 10.2453 77.8657 10.3339 77.7157 10.3339C77.5011 10.3339 76.7065 10.3027 75.5056 10.3027H70.2273C70.0982 10.6271 69.9273 10.9215 69.7346 11.2172C69.5409 11.4817 69.1973 11.6002 68.9409 11.5104C68.7264 10.8029 68.5546 9.44934 68.4036 7.0053L68.2109 3.94243C68.19 3.64931 67.5881 3.00052 67.2245 2.82334M79.1093 23.7318C79.1093 23.8504 79.0457 23.939 78.8739 23.939H76.6638L70.0982 23.9676C68.2755 23.9676 67.91 23.113 67.91 21.435V18.9324C67.91 18.4894 67.2236 17.7247 66.8372 17.6374C66.7081 17.6087 67.1372 16.8726 67.309 16.8726C68.06 16.8726 69.1754 17.1071 69.7346 17.4016C69.8409 17.4615 70.0137 17.5488 69.97 17.8732C69.9273 18.2562 69.9273 18.8151 69.9273 19.2867V21.465C69.9273 22.3782 70.1637 22.4955 70.7428 22.4955L76.2575 22.4668C77.4166 22.4668 77.803 21.5835 77.953 21.5835C78.253 21.5835 79.1112 23.0557 79.1112 23.7318M81.1912 14.1928C81.1912 14.34 81.1058 14.4273 80.9548 14.4273H74.1538V16.1366C74.1538 17.8732 73.681 19.374 73.3601 20.0515C73.1892 20.3172 72.8237 20.4345 72.5873 20.3459C72.3946 19.5512 72.1155 18.4894 72.1155 16.5469V14.426H67.5445C66.7717 14.426 66.2572 14.7204 66.0217 15.0149C65.4208 14.7804 64.198 13.4841 64.198 13.1896C64.198 13.0724 64.3053 12.748 64.3689 12.778C64.7344 12.9551 66.0426 12.9838 67.2872 12.9838L77.8011 12.9551C79.1311 12.9551 79.5811 11.9246 79.753 11.9246C79.9893 11.9246 81.1903 13.4854 81.1903 14.1928M51.2386 6.74344C51.2386 8.62727 52.1386 9.89359 53.4914 9.89359C54.8442 9.89359 55.8733 8.62727 55.8733 6.74344C55.8733 4.8596 54.9069 3.59198 53.5132 3.59198C52.1196 3.59198 51.2396 4.8596 51.2396 6.74344M49.1995 6.83072C49.1995 4.18215 50.745 2.41426 53.1259 2.23838C53.1468 2.1511 53.1686 2.0612 53.1686 1.97261C53.1686 1.70815 53.1259 1.41502 52.8468 1.14925C52.8468 0.560387 54.2841 1.14925 54.2841 1.47364C54.2841 1.5909 54.1768 1.94395 54.1113 2.23838C56.3869 2.47289 57.8878 4.24077 57.8878 6.83072C57.8878 9.56919 56.1496 11.3657 53.5531 11.3657C50.9567 11.3657 49.1976 9.56919 49.1976 6.83072M62.0307 14.8703C62.0307 14.9875 61.9453 15.0761 61.7953 15.0761H57.1388V16.4896C57.1388 20.4631 56.6233 23.5547 56.3451 24.4679C56.1742 24.7337 55.7879 24.8509 55.5733 24.7923C55.4005 24.0562 55.1005 21.7607 55.1005 18.1976V15.0774L51.8177 15.1061V15.9893C51.8177 19.9355 51.3022 23.0257 51.045 23.9403C50.8741 24.2048 50.4877 24.3233 50.2513 24.2634C50.1013 23.5273 49.8013 21.2318 49.8013 17.6973V15.1061H48.3849C47.6122 15.1061 47.0976 15.4005 46.8622 15.6949C46.2613 15.4604 45.0385 14.1641 45.0385 13.8397C45.0385 13.7512 45.1458 13.4281 45.2094 13.4567C45.5749 13.6339 46.8831 13.6626 48.1277 13.6626L58.6416 13.6039C59.9716 13.6039 60.4216 12.5734 60.5944 12.5734C60.8298 12.5734 62.0307 14.1641 62.0307 14.8703ZM32.25 5.56441C32.25 7.18378 33.13 8.33284 34.46 8.33284C35.7901 8.33284 36.6701 7.18378 36.6701 5.56441C36.6701 3.94504 35.7901 2.85591 34.46 2.85591C33.13 2.85591 32.25 3.97631 32.25 5.56441ZM30.2117 5.68296C30.2117 3.35618 31.6918 1.67818 33.9873 1.47234C34.0081 1.32513 34.0518 1.20657 34.0518 1.06066C34.0518 0.79489 33.9873 0.530423 33.729 0.264654C33.729 -0.35287 35.1663 0.264654 35.1663 0.559084C35.1663 0.736264 35.0163 1.14795 34.93 1.47234C37.2055 1.67818 38.7283 3.35618 38.7283 5.68296C38.7283 8.1257 36.99 9.86362 34.4591 9.86362C31.9281 9.86362 30.2108 8.1257 30.2108 5.68296M40.382 24.2035C40.382 24.3507 40.2956 24.4093 40.1456 24.4093H31.799C30.3617 24.4093 29.8671 23.7318 29.8254 22.2011L29.7826 20.2286C29.7826 19.9355 29.2235 19.5525 28.8589 19.3453C28.838 19.1981 29.1599 18.6979 29.3317 18.6979C29.739 18.6979 31.2636 18.8151 31.8209 19.0809H37.2492L37.2701 16.6955H31.8418C31.1763 16.6955 30.7481 16.93 30.5117 17.2257C29.739 17.0785 29.1162 15.6936 29.0953 15.4878C29.0744 15.3406 29.1817 15.0461 29.289 15.0761C29.9754 15.2533 30.8326 15.2533 32.0781 15.2533H36.5191C37.1201 15.2533 37.4419 15.1647 37.6783 14.8403C37.9356 14.8116 39.652 15.0774 39.5884 15.4591L39.052 18.9337C39.4592 19.3453 39.7175 20.0528 39.7175 20.2286C39.7175 20.3758 39.6529 20.4944 39.5447 20.4944C39.352 20.4944 38.1292 20.4631 37.1419 20.4631H31.8209V21.7594C31.8209 22.76 32.0354 22.9658 33.0009 22.9658H37.6992C39.0292 22.9658 39.2229 22.2011 39.3729 22.2011C39.6728 22.2011 40.382 23.5859 40.382 24.2035ZM42.8275 12.8079C42.8275 12.9265 42.7411 13.0138 42.5911 13.0138H39.5656L29.2026 13.045C28.4517 13.045 27.9371 13.3382 27.7007 13.6039C27.078 13.3668 25.9625 12.1005 25.8771 11.7787C25.8562 11.6901 25.9843 11.3657 26.0479 11.3944C26.4134 11.5716 27.7216 11.6015 28.9662 11.6015L39.4592 11.5416C40.7684 11.5416 41.2184 10.5124 41.4111 10.5124C41.6475 10.5124 42.8275 12.1018 42.8275 12.8079ZM19.1406 12.7493C19.1406 13.0138 18.9906 13.0138 18.4751 13.2196C18.2605 13.3082 18.1532 13.7811 17.9814 14.5159C17.6159 16.0753 16.4378 18.5793 13.9904 18.5793C11.543 18.5793 10.2576 15.7223 10.1712 15.5751C10.0421 15.3406 9.84938 15.1334 9.67755 15.1334C9.57123 15.1334 9.48484 15.192 9.42123 15.252C8.5412 16.0753 7.57572 17.0173 7.57572 19.1669C7.57572 20.5804 8.43297 22.1998 9.8921 22.1998C11.1357 22.1998 11.9522 20.5804 12.2094 19.4613C12.2949 19.0783 12.273 18.9311 12.423 18.9311C12.6167 18.9311 12.6803 19.5199 12.9385 19.5199C13.1531 19.5199 13.0885 19.3727 13.3676 19.3727C13.6249 19.3727 13.6904 19.8443 13.904 19.8443C14.2049 19.8443 14.6132 19.4913 14.8049 19.4913C14.8695 19.4913 14.9777 19.4913 14.9777 19.5785C14.9777 19.7258 14.784 19.873 14.6122 20.0801C14.2467 20.5231 13.9686 20.7875 13.6895 21.435C12.7021 23.7305 11.5658 24.1435 10.9857 24.3793C10.7721 24.4666 10.5566 24.6138 10.4703 24.8809C10.1484 25.8814 9.95666 26 9.87027 26C9.76299 26 9.72027 25.8228 9.69939 25.4411C9.67661 25.0294 9.50572 24.5578 8.92663 24.4106C7.44661 24.0276 5.62198 21.9679 5.62198 18.7278C5.62198 15.8135 7.23111 14.6644 8.04659 13.5453C8.15387 13.3981 8.24026 13.2209 8.24026 12.9564V12.8679C8.24026 12.7219 8.21747 12.5448 8.08931 12.3103C7.27383 10.8967 6.65296 9.95352 5.53654 9.95352C4.31379 9.95352 3.24104 11.3384 3.24104 13.3408C3.24104 15.4904 4.0138 16.2265 4.78656 16.4922C5.04288 16.5795 5.12927 16.6095 5.12927 16.7267C5.12927 16.9612 4.95839 16.9039 4.95839 17.257C4.95839 17.5214 5.10839 17.4915 5.10839 17.9045C5.10839 18.1989 4.91472 18.2875 4.91472 18.7291C4.91472 19.0822 5.04383 19.1994 5.04383 19.4066C5.04383 19.671 5.15111 19.6411 5.15111 20.2013C5.15111 20.3485 5.19383 20.4657 5.10839 20.4657C5.02295 20.4657 4.91472 20.2599 4.78656 19.9954C4.48562 19.3766 4.1638 18.9936 3.92741 18.7591C2.06101 16.9039 1.99551 16.0792 1.52464 14.8129C1.41736 14.5198 1.37464 14.0182 1.15914 13.871C0.47277 13.3994 0 13.2535 0 12.4861C0 12.1331 0.30094 12.4861 0.772761 12.4861C1.03003 12.4861 1.33002 12.5461 1.48192 11.81C1.80374 10.2492 3.15465 7.74528 5.51471 7.74528C8.02476 7.74528 9.26934 10.6023 9.35573 10.7495C9.52661 11.0739 9.67755 11.1912 9.84938 11.1912C9.95666 11.1912 10.0421 11.1912 10.2358 10.9567C11.8231 9.0129 11.9522 8.15957 11.9522 7.04178C11.9522 5.62825 11.1357 3.97891 9.6766 3.97891C8.21747 3.97891 7.5311 5.56832 7.33838 6.74604C7.27383 7.12906 7.23111 7.3349 7.102 7.3349C6.90928 7.3349 6.90928 6.98185 6.69473 6.98185C6.35107 6.98185 6.30835 7.18769 6.13747 7.18769C5.90109 7.18769 5.90109 6.59883 5.55743 6.59883C5.47199 6.59883 5.27832 6.74604 5.15016 6.74604C4.82833 6.74604 4.80745 6.83333 4.6565 6.83333C4.48562 6.83333 4.31379 6.71608 4.31379 6.5402C4.31379 6.36432 4.42107 6.24577 4.76378 6.00997C5.21471 5.68557 5.62293 5.45107 5.83653 4.80228C6.50202 2.77122 7.9602 2.12243 8.51936 1.82931C8.73296 1.71075 8.84119 1.5922 8.94846 1.32773C9.39845 0.208633 9.59211 0.0913823 9.72122 0.0913823C9.85033 0.0913823 9.8285 0.385813 9.8921 0.740173C9.95666 1.15185 9.95666 1.47625 10.4494 1.65343C11.8449 2.155 13.904 3.92029 13.904 7.15903C13.904 10.3978 11.5876 12.4301 11.4794 12.5474C11.2221 12.8118 11.1357 13.0177 11.1357 13.2235C11.1357 13.3707 11.2003 13.5479 11.2648 13.7251C11.824 15.2572 12.7885 16.2577 13.904 16.2577C15.234 16.2577 16.2641 14.5511 16.2641 12.7832C16.2641 11.0153 15.4068 9.95612 14.6549 9.63303C14.3758 9.51447 14.2477 9.51447 14.2477 9.30863C14.2477 9.07413 14.4404 9.16142 14.4404 8.80706C14.4404 8.54259 14.3549 8.60122 14.3549 8.18954C14.3549 7.8951 14.6122 7.80651 14.6122 7.36487C14.6122 7.01181 14.4831 6.89456 14.4831 6.68872C14.4831 6.42295 14.4185 6.45161 14.4185 5.89271C14.4185 5.7455 14.3758 5.62825 14.4622 5.62825C14.5685 5.62825 14.6758 5.83409 14.8049 6.09855C15.1049 6.71738 15.3413 7.18769 15.5777 7.39353C17.2732 8.86699 17.6378 9.80891 18.0241 11.1338C18.1096 11.4283 18.195 11.9285 18.4532 12.1344C18.6668 12.3129 19.1396 12.5187 19.1396 12.7532" fill="#221411"/>
</svg>
