<svg width="170" height="30" viewBox="0 0 170 30" fill="none" xmlns="http://www.w3.org/2000/svg">
<path d="M169.856 15.2203L164.871 15.1527V18.9243C164.871 23.7827 164.111 27.3498 163.746 28.4021C163.504 28.7087 162.957 28.8786 162.622 28.7764C162.41 27.9271 161.985 25.2769 161.985 20.8935V3.90709C161.985 3.19456 160.191 1.73343 159.522 1.49592C159.339 1.42677 159.918 0.679672 160.099 0.679672C161.467 0.679672 165.052 1.59664 164.962 2.31067C164.9 2.78568 164.871 3.36442 164.871 3.97624V13.6916L168.639 12.026C168.974 11.8892 170.463 15.2188 169.856 15.2188M159.522 17.0558C160.04 17.872 158.64 21.3354 158.123 20.5222C157.393 19.3662 155.389 15.9689 153.595 13.6931C151.193 17.4301 148.214 20.453 145.541 22.051C145.206 22.0179 144.81 21.4722 144.81 21.134C148.124 17.8374 151.863 12.0621 153.443 6.79628C153.535 6.49112 152.41 5.57266 151.923 5.23443C151.771 5.13221 152.441 4.55347 152.623 4.55347C153.535 4.55347 156.027 5.70945 156.635 6.18447C156.97 6.45805 156.999 6.62641 156.847 7.06686C156.179 9.00451 155.298 10.8384 154.295 12.5386C156.543 14.2703 159.035 16.2741 159.523 17.0558M143.412 15.527L138.397 15.4248V18.9243C138.397 23.7827 137.697 27.3498 137.302 28.4021C137.06 28.7087 136.512 28.8786 136.207 28.7764C135.965 27.9271 135.57 25.2769 135.57 20.8935V3.90709C135.57 3.19456 133.775 1.80107 133.107 1.49592C132.955 1.42677 133.502 0.679672 133.684 0.679672C135.052 0.679672 138.547 1.59664 138.485 2.31067C138.456 2.78568 138.395 3.36442 138.395 3.97624V13.9967L142.194 12.3672C142.559 12.1974 144.049 15.527 143.412 15.527ZM127.12 17.1911C128.517 17.1911 129.551 16.1027 129.551 14.4387C129.551 12.7746 128.579 11.6517 127.12 11.6517C125.66 11.6517 124.688 12.7746 124.688 14.4387C124.688 16.1027 125.66 17.1911 127.12 17.1911ZM122.377 3.02319C122.345 2.8879 122.498 2.41138 122.68 2.44445C123.682 2.64889 124.687 2.85183 125.963 3.02319L129.063 3.3975C129.337 3.43057 130.522 5.266 129.733 5.266H125.051C124.262 5.266 122.437 3.32985 122.376 3.02319M119.276 7.16908C119.247 7.06686 119.428 6.69406 119.518 6.72713C120.036 6.93157 121.889 6.99771 123.652 6.96464L129.975 6.89699C131.798 6.86392 132.346 5.84324 132.619 5.84324C132.923 5.84324 134.078 7.64259 134.078 8.45884C134.078 8.59563 133.956 8.69635 133.743 8.69635C133.439 8.69635 131.676 8.59563 130.279 8.59563L123.47 8.6287C122.376 8.6287 121.647 8.89928 121.312 9.24052C120.461 8.96994 119.397 7.54188 119.276 7.16757M134.385 21.0633C131.648 22.4568 126.42 23.2731 122.833 23.7812C121.861 23.918 121.284 24.1209 120.706 24.4952C119.794 24.2216 118.457 22.7274 118.335 22.1502C118.364 21.9818 118.487 21.812 118.577 21.7082C119.581 21.7082 121.039 21.7413 122.802 21.6406C123.897 21.5729 124.93 21.5038 125.871 21.4031L125.689 18.4808C123.379 18.0389 121.95 16.5086 121.95 14.4026C121.95 12.0936 123.744 10.5303 126.571 10.3604C126.6 10.2251 126.631 10.1229 126.631 9.98611C126.631 9.71553 126.571 9.41038 126.236 9.13679C126.236 8.49191 128.06 9.13679 128.06 9.47652C128.06 9.61331 127.908 10.0192 127.818 10.3589C130.583 10.5634 132.316 12.1267 132.316 14.4011C132.316 16.5071 130.826 18.0374 128.545 18.4793L128.424 21.1295C131.312 20.7552 133.258 20.2441 134.564 19.7691C134.838 19.6684 134.716 20.889 134.383 21.0603M99.8222 4.5189L99.7926 10.1921H106.875L107.058 4.5189H99.8222ZM95.2334 3.2607C95.2038 3.09084 95.6288 2.5136 95.8413 2.5136C96.3591 2.5136 98.1814 2.58125 99.3676 2.81876H106.115C106.965 2.81876 107.422 2.68196 107.756 2.34374C108.12 2.20694 110.493 2.61432 110.432 3.05626L109.427 9.8854C109.854 10.3273 110.432 11.2097 110.432 11.6863C110.432 11.8215 110.31 11.9238 110.097 11.9238C109.793 11.9238 108.668 11.8877 106.966 11.8877H99.4887C99.3058 12.262 99.0637 12.6017 98.7907 12.9429C98.5163 13.2481 98.0295 13.3849 97.6663 13.2812C97.3624 12.4649 97.119 10.9031 96.9051 8.08304L96.6321 4.54896C96.6025 4.21074 95.7499 3.46213 95.2348 3.2577M112.072 27.3829C112.072 27.5197 111.981 27.6219 111.738 27.6219H108.607L99.3058 27.655C96.7236 27.655 96.2058 26.6689 96.2058 24.7327V21.845C96.2058 21.3339 95.2334 20.4515 94.686 20.3508C94.5031 20.3178 95.111 19.4684 95.3545 19.4684C96.4183 19.4684 97.9985 19.739 98.7907 20.0787C98.9413 20.1479 99.1861 20.2486 99.1242 20.6229C99.0637 21.0649 99.0637 21.7097 99.0637 22.2539V24.7673C99.0637 25.821 99.3986 25.9563 100.219 25.9563L108.031 25.9233C109.674 25.9233 110.221 24.9041 110.433 24.9041C110.858 24.9041 112.074 26.6027 112.074 27.3829M115.021 16.3763C115.021 16.5462 114.9 16.6469 114.686 16.6469H105.051V18.6191C105.051 20.6229 104.381 22.3546 103.927 23.1363C103.685 23.4429 103.167 23.5782 102.832 23.476C102.559 22.5591 102.164 21.3339 102.164 19.0926V16.6454H95.688C94.5932 16.6454 93.8643 16.9851 93.5308 17.3248C92.6795 17.0543 90.9472 15.5586 90.9472 15.2188C90.9472 15.0835 91.0992 14.7092 91.1893 14.7438C91.7071 14.9482 93.5604 14.9813 95.3235 14.9813L110.218 14.9482C112.102 14.9482 112.74 13.7592 112.983 13.7592C113.318 13.7592 115.02 15.5601 115.02 16.3763M72.5881 7.78089C72.5881 9.95455 73.863 11.4157 75.7795 11.4157C77.696 11.4157 79.1538 9.95455 79.1538 7.78089C79.1538 5.60723 77.7847 4.1446 75.8104 4.1446C73.8361 4.1446 72.5894 5.60723 72.5894 7.78089M69.6992 7.8816C69.6992 4.82556 71.8887 2.78568 75.2617 2.58275C75.2913 2.48203 75.3222 2.37831 75.3222 2.27609C75.3222 1.97094 75.2617 1.63271 74.8663 1.32606C74.8663 0.646601 76.9025 1.32606 76.9025 1.70036C76.9025 1.83565 76.7505 2.24302 76.6577 2.58275C79.8814 2.85333 82.0077 4.8932 82.0077 7.8816C82.0077 11.0414 79.5452 13.1143 75.8669 13.1143C72.1886 13.1143 69.6965 11.0414 69.6965 7.8816M87.8768 17.158C87.8768 17.2933 87.7558 17.3955 87.5433 17.3955H80.9466V19.0265C80.9466 23.6113 80.2163 27.1785 79.8223 28.2322C79.5802 28.5389 79.0328 28.6742 78.7289 28.6065C78.4841 27.7572 78.0591 25.1085 78.0591 20.9972V17.397L73.4085 17.4301V18.4492C73.4085 23.0025 72.6782 26.5681 72.3137 27.6234C72.0716 27.9286 71.5243 28.0654 71.1894 27.9962C70.9769 27.1469 70.5519 24.4982 70.5519 20.42V17.4301H68.5453C67.4506 17.4301 66.7216 17.7698 66.3881 18.1095C65.5368 17.8389 63.8045 16.3432 63.8045 15.9689C63.8045 15.8667 63.9565 15.4939 64.0466 15.527C64.5644 15.7314 66.4177 15.7645 68.1808 15.7645L83.0756 15.6969C84.9598 15.6969 85.5972 14.5078 85.842 14.5078C86.1755 14.5078 87.8768 16.3432 87.8768 17.158ZM45.6875 6.42047C45.6875 8.28898 46.9342 9.61482 48.8184 9.61482C50.7026 9.61482 51.9493 8.28898 51.9493 6.42047C51.9493 4.55197 50.7026 3.29528 48.8184 3.29528C46.9342 3.29528 45.6875 4.58805 45.6875 6.42047ZM42.8 6.55727C42.8 3.87251 44.8967 1.93636 48.1486 1.69886C48.1782 1.52899 48.2401 1.3922 48.2401 1.22384C48.2401 0.917181 48.1486 0.612027 47.7828 0.305369C47.7828 -0.407157 49.819 0.305369 49.819 0.645097C49.819 0.849536 49.6065 1.32455 49.4841 1.69886C52.7078 1.93636 54.865 3.87251 54.865 6.55727C54.865 9.37581 52.4025 11.3811 48.817 11.3811C45.2315 11.3811 42.7986 9.37581 42.7986 6.55727M57.2078 27.9271C57.2078 28.0969 57.0854 28.1646 56.873 28.1646H45.0486C43.0125 28.1646 42.3118 27.3829 42.2526 25.6166L42.1921 23.3407C42.1921 23.0025 41.3999 22.5606 40.8835 22.3215C40.8539 22.1517 41.3098 21.5744 41.5532 21.5744C42.1302 21.5744 44.2901 21.7097 45.0796 22.0164H52.7697L52.7993 19.264H45.1092C44.1664 19.264 43.5598 19.5346 43.225 19.8758C42.1302 19.7059 41.248 18.108 41.2184 17.8705C41.1888 17.7006 41.3408 17.3609 41.4927 17.3955C42.4651 17.5999 43.6795 17.5999 45.444 17.5999H51.7355C52.5868 17.5999 53.0427 17.4977 53.3776 17.1234C53.742 17.0903 56.1736 17.397 56.0835 17.8374L55.3236 21.8465C55.9006 22.3215 56.2664 23.1378 56.2664 23.3407C56.2664 23.5106 56.175 23.6474 56.0216 23.6474C55.7486 23.6474 54.0164 23.6113 52.6177 23.6113H45.0796V25.107C45.0796 26.2615 45.3835 26.499 46.7513 26.499H53.4072C55.2914 26.499 55.5657 25.6166 55.7782 25.6166C56.2032 25.6166 57.2078 27.2145 57.2078 27.9271ZM60.6723 14.7784C60.6723 14.9152 60.5499 15.0159 60.3374 15.0159H56.0512L41.3703 15.052C40.3065 15.052 39.5776 15.3902 39.2427 15.6969C38.3605 15.4233 36.7802 13.9621 36.6592 13.5908C36.6296 13.4886 36.8111 13.1143 36.9013 13.1474C37.419 13.3518 39.2723 13.3864 41.0355 13.3864L55.9006 13.3173C57.7552 13.3173 58.3927 12.1297 58.6657 12.1297C59.0006 12.1297 60.6723 13.9636 60.6723 14.7784ZM27.1158 14.7107C27.1158 15.0159 26.9033 15.0159 26.173 15.2534C25.8691 15.3556 25.7171 15.9013 25.4737 16.7491C24.9559 18.5485 23.2869 21.4377 19.8197 21.4377C16.3526 21.4377 14.5316 18.1411 14.4092 17.9712C14.2263 17.7006 13.9533 17.4616 13.7099 17.4616C13.5592 17.4616 13.4369 17.5293 13.3467 17.5984C12.1 18.5485 10.7323 19.6353 10.7323 22.1156C10.7323 23.7466 11.9467 25.6151 14.0138 25.6151C15.7756 25.6151 16.9322 23.7466 17.2967 22.4553C17.4177 22.0134 17.3868 21.8435 17.5993 21.8435C17.8737 21.8435 17.9638 22.523 18.3296 22.523C18.6335 22.523 18.5421 22.3531 18.9375 22.3531C19.3019 22.3531 19.3947 22.8973 19.6973 22.8973C20.1237 22.8973 20.702 22.4899 20.9736 22.4899C21.0651 22.4899 21.2184 22.4899 21.2184 22.5906C21.2184 22.7605 20.9441 22.9304 20.7006 23.1694C20.1829 23.6805 19.7888 23.9856 19.3934 24.7327C17.9947 27.3814 16.3849 27.8579 15.5631 28.13C15.2605 28.2307 14.9552 28.4006 14.8329 28.7087C14.3769 29.8632 14.1053 30 13.9829 30C13.8309 30 13.7704 29.7956 13.7408 29.3551C13.7085 28.8801 13.4664 28.3359 12.6461 28.1661C10.5494 27.7241 7.96447 25.3475 7.96447 21.609C7.96447 18.2463 10.2441 16.9205 11.3993 15.6292C11.5513 15.4593 11.6737 15.2549 11.6737 14.9497V14.8475C11.6737 14.6792 11.6414 14.4747 11.4599 14.2042C10.3046 12.5732 9.42503 11.4848 7.84343 11.4848C6.11121 11.4848 4.59147 13.0827 4.59147 15.3932C4.59147 17.8735 5.68622 18.7228 6.78096 19.0295C7.14409 19.1302 7.26647 19.1648 7.26647 19.3001C7.26647 19.5707 7.02439 19.5045 7.02439 19.9119C7.02439 20.217 7.23688 20.1825 7.23688 20.659C7.23688 20.9987 6.96253 21.1009 6.96253 21.6105C6.96253 22.0179 7.14543 22.1532 7.14543 22.3922C7.14543 22.6974 7.2974 22.6628 7.2974 23.3092C7.2974 23.479 7.35792 23.6143 7.23688 23.6143C7.11584 23.6143 6.96253 23.3768 6.78096 23.0717C6.35463 22.3576 5.89871 21.9157 5.56383 21.6451C2.91977 19.5045 2.82697 18.553 2.1599 17.0918C2.00793 16.7536 1.94741 16.1749 1.64212 16.005C0.669758 15.4608 0 15.2925 0 14.4071C0 13.9997 0.426332 14.4071 1.09475 14.4071C1.45921 14.4071 1.8842 14.4762 2.09938 13.6269C2.5553 11.8261 4.46909 8.93687 7.8125 8.93687C11.3684 8.93687 13.1316 12.2334 13.2539 12.4033C13.496 12.7776 13.7099 12.9129 13.9533 12.9129C14.1053 12.9129 14.2263 12.9129 14.5007 12.6423C16.7493 10.3995 16.9322 9.41489 16.9322 8.12513C16.9322 6.49413 15.7756 4.59105 13.7085 4.59105C11.6414 4.59105 10.6691 6.42498 10.396 7.78389C10.3046 8.22584 10.2441 8.46335 10.0612 8.46335C9.78815 8.46335 9.78815 8.05598 9.48421 8.05598C8.99735 8.05598 8.93683 8.29349 8.69475 8.29349C8.35987 8.29349 8.35987 7.61403 7.87302 7.61403C7.75198 7.61403 7.47762 7.78389 7.29606 7.78389C6.84014 7.78389 6.81055 7.88461 6.59671 7.88461C6.35463 7.88461 6.11121 7.74932 6.11121 7.54639C6.11121 7.34345 6.26318 7.20666 6.74869 6.93457C7.38751 6.56027 7.96582 6.28969 8.26842 5.54109C9.21119 3.19757 11.277 2.44896 12.0691 2.11074C12.3717 1.97394 12.525 1.83715 12.677 1.532C13.3145 0.240731 13.5888 0.105441 13.7717 0.105441C13.9546 0.105441 13.9237 0.445169 14.0138 0.854045C14.1053 1.32906 14.1053 1.70337 14.8033 1.9078C16.7803 2.48654 19.6973 4.52341 19.6973 8.26042C19.6973 11.9974 16.4158 14.3424 16.2625 14.4777C15.898 14.7829 15.7756 15.0204 15.7756 15.2579C15.7756 15.4278 15.8671 15.6322 15.9585 15.8366C16.7507 17.6044 18.1171 18.7589 19.6973 18.7589C21.5815 18.7589 23.0408 16.7897 23.0408 14.7498C23.0408 12.71 21.8263 11.4878 20.7612 11.115C20.3658 10.9782 20.1842 10.9782 20.1842 10.7407C20.1842 10.4702 20.4572 10.5709 20.4572 10.162C20.4572 9.85684 20.3362 9.92448 20.3362 9.44946C20.3362 9.10974 20.7006 9.00752 20.7006 8.49792C20.7006 8.09055 20.5177 7.95526 20.5177 7.71775C20.5177 7.4111 20.4263 7.44417 20.4263 6.79928C20.4263 6.62942 20.3658 6.49413 20.4881 6.49413C20.6388 6.49413 20.7907 6.73164 20.9736 7.03679C21.3986 7.75082 21.7335 8.29349 22.0684 8.531C24.4704 10.2311 24.9868 11.318 25.5342 12.8467C25.6552 13.1865 25.7763 13.7637 26.1421 14.0012C26.4447 14.2072 27.1144 14.4447 27.1144 14.7152" fill="white"/>
</svg>
