<svg xmlns="http://www.w3.org/2000/svg" xmlns:xlink="http://www.w3.org/1999/xlink" width="99.503" height="50.436" viewBox="0 0 99.503 50.436">
  <defs>
    <clipPath id="clip-path">
      <rect id="사각형_13" data-name="사각형 13" width="99.503" height="50.436" fill="none"/>
    </clipPath>
  </defs>
  <g id="logo" transform="translate(0 0)">
    <g id="그룹_1" data-name="그룹 1" transform="translate(0 0)" clip-path="url(#clip-path)">
      <path id="패스_1" data-name="패스 1" d="M26.291,5.69S22.246-5.975,11.6,4.1c0,0-7.415,4.065-5.123,19.8,0,0,3.1,10.428,3.236,13.963,0,0,.064,4.949-3.676,4.242A12.093,12.093,0,0,1,0,36.445s0,7.777,6.472,7.07c0,0,3.91.884,7.955-4.949A15.947,15.947,0,0,0,14.292,26.9a10.974,10.974,0,0,1-1.146-6.187,24.175,24.175,0,0,1,3.168,7.6s2.157,7.247-.135,10.959c0,0,4.449-1.237,5.393-14.14,0,0-.809-9.9-3.91-14.493,0,0-3.371-9.368,3.506-8.484A8.15,8.15,0,0,1,26.291,5.69" transform="translate(0 0)" fill="#6aae27"/>
      <text id="IMPOL" transform="translate(23.144 29.241)" fill="#362f2d" font-size="26" font-family="BMJUA, BM JUA_TTF"><tspan x="0" y="0">I</tspan><tspan y="0" letter-spacing="0.02em">M</tspan><tspan y="0">P</tspan><tspan y="0" letter-spacing="0.019em">O</tspan><tspan y="0">L</tspan></text>
    </g>
  </g>
</svg>
