<svg width="126" height="123" viewBox="0 0 126 123" fill="none" xmlns="http://www.w3.org/2000/svg">
<g clip-path="url(#clip0_88_24)">
<path d="M66.1607 1.92855C66.1788 2.15029 66.1425 2.30551 66.0608 2.40308C65.9745 2.49621 65.8156 2.55386 65.5703 2.5716L54.1946 3.58274L54.4353 5.9199L65.5385 4.93093C65.7792 4.91319 65.9472 4.94424 66.0472 5.0285C66.1425 5.11276 66.2016 5.26354 66.2197 5.48528L66.3242 6.85565C66.3423 7.07739 66.306 7.23261 66.2243 7.33017C66.138 7.4233 65.979 7.48096 65.7338 7.4987L60.5296 7.95992L60.6386 9.41898L66.2016 8.93558C66.415 8.92228 66.5649 8.94889 66.6511 9.01541C66.7374 9.08193 66.7919 9.23715 66.8101 9.4722L66.9145 10.8426C66.9327 11.0953 66.9054 11.2639 66.8282 11.3481C66.751 11.4368 66.6148 11.4856 66.4195 11.4989L52.3963 12.7185C52.201 12.7318 52.0557 12.7008 51.9694 12.6254C51.8786 12.55 51.8287 12.3859 51.806 12.1375L51.7015 10.7672C51.6834 10.5321 51.7151 10.3725 51.7923 10.2926C51.8695 10.2128 52.0149 10.164 52.2238 10.1507L57.7867 9.66733L57.6777 8.20827L52.4735 8.66949C52.2328 8.68723 52.0648 8.65175 51.9785 8.57192C51.8877 8.48766 51.8287 8.33688 51.7969 8.11957L51.1248 1.85316C51.093 1.63142 51.1248 1.4762 51.2156 1.37863C51.3064 1.2855 51.4745 1.22785 51.7151 1.21011L65.3796 0.0038351C65.6203 -0.0139042 65.7883 0.0171396 65.8882 0.101401C65.9836 0.185663 66.0426 0.336447 66.0608 0.558189L66.1652 1.92855H66.1607ZM60.1118 21.5216C59.1309 21.5926 58.2681 21.5438 57.5279 21.3841C56.7877 21.2201 56.1701 20.9717 55.6751 20.6258C55.1801 20.2843 54.7986 19.8674 54.5352 19.384C54.2718 18.9006 54.1174 18.3685 54.0766 17.7919C54.0357 17.2154 54.1083 16.6699 54.2945 16.1555C54.4853 15.6366 54.7986 15.1754 55.2391 14.7674C55.6796 14.3594 56.2473 14.0223 56.9511 13.7562C57.6505 13.4902 58.4997 13.3216 59.4988 13.2507C60.4933 13.1797 61.3606 13.2241 62.0918 13.3881C62.8229 13.5522 63.4405 13.805 63.9355 14.1465C64.4305 14.488 64.8119 14.9049 65.0753 15.3883C65.3387 15.8717 65.4931 16.4038 65.534 16.9804C65.5749 17.5569 65.5022 18.1024 65.316 18.6168C65.1253 19.1357 64.8119 19.5969 64.3715 20.0049C63.931 20.4129 63.3588 20.75 62.6594 21.0161C61.9601 21.2821 61.1109 21.4507 60.1118 21.5216ZM59.9347 19.18C60.8838 19.1135 61.5695 18.8962 61.9919 18.5326C62.4142 18.1689 62.6049 17.721 62.5641 17.1932C62.5232 16.6611 62.2689 16.2486 61.8011 15.947C61.3288 15.6455 60.6204 15.5302 59.6713 15.5967C58.7222 15.6632 58.0319 15.8805 57.6142 16.2442C57.1918 16.6078 57.0011 17.0558 57.042 17.5835C57.0828 18.1157 57.3371 18.5281 57.8049 18.8297C58.2772 19.1313 58.9856 19.2466 59.9347 19.18Z" fill="white"/>
<path d="M69.6166 20.9984C69.4259 20.9407 69.3124 20.8653 69.2624 20.7633C69.2125 20.6658 69.2215 20.4928 69.2806 20.2489L70.3341 16.4128C70.3886 16.1822 70.4704 16.0491 70.5794 16.0092C70.6838 15.9693 70.8427 15.9737 71.0516 16.0225L80.8742 18.475L81.1876 17.6191L70.9472 14.763C70.7565 14.7054 70.6384 14.63 70.5794 14.528C70.5249 14.426 70.5339 14.2575 70.6066 14.0135L70.9426 12.9314C71.0153 12.7053 71.097 12.5678 71.2015 12.5234C71.3014 12.4747 71.4558 12.4835 71.6556 12.5412L76.5283 13.8938L76.8598 12.8339L71.4694 11.326C71.2787 11.2684 71.1606 11.193 71.1061 11.091C71.0516 10.989 71.0607 10.8205 71.1334 10.5765L71.5103 9.36584C71.583 9.13966 71.6647 9.00218 71.7691 8.95783C71.869 8.90905 72.0235 8.91792 72.2278 8.97557L85.7197 12.754C85.924 12.8161 86.0512 12.8915 86.1102 12.9847C86.1693 13.0778 86.1602 13.2374 86.0921 13.4636L85.7152 14.6743C85.638 14.9138 85.5517 15.0602 85.4472 15.1178C85.3428 15.171 85.1975 15.171 85.0113 15.1178L79.6209 13.61L79.2894 14.6699L84.1802 16.0314C84.3846 16.0935 84.5163 16.1689 84.5799 16.2664C84.6434 16.364 84.6343 16.5237 84.5481 16.7454L83.163 20.5061C83.0722 20.7412 82.9814 20.8831 82.886 20.9363C82.7906 20.9851 82.6499 20.9895 82.4546 20.9452L72.7228 18.5149L72.4821 19.3708L81.7689 21.943C81.9732 22.0051 82.1004 22.0805 82.1594 22.1736C82.2184 22.2668 82.2094 22.4264 82.1412 22.6526L81.8052 23.7347C81.728 23.9742 81.6417 24.1205 81.5373 24.1782C81.4328 24.2314 81.2875 24.2314 81.1013 24.1782L69.6302 21.0028L69.6166 20.9984ZM72.8999 8.02208C72.6683 7.95113 72.5275 7.86243 72.473 7.75599C72.4185 7.64956 72.4185 7.48547 72.473 7.26816L74.0216 1.60932C74.0715 1.39201 74.1578 1.25453 74.2804 1.20132C74.3985 1.14366 74.5756 1.15253 74.8072 1.21905L87.9948 4.9044C88.2264 4.97536 88.3763 5.06405 88.4444 5.17492C88.5125 5.28579 88.5034 5.44988 88.4262 5.65388L86.4872 11.1974C86.4054 11.4059 86.3146 11.5389 86.2056 11.601C86.1012 11.6631 85.9286 11.6586 85.697 11.5877L72.8999 8.01765V8.02208ZM75.7381 6.15059L84.3846 8.5587L85.0158 6.75372L76.2377 4.3057L75.7336 6.15059H75.7381Z" fill="white"/>
<path d="M95.0746 24.1117L93.685 25.8369L97.9537 28.9989C98.1217 29.1275 98.2125 29.2473 98.2307 29.3537C98.2489 29.4601 98.1853 29.6109 98.0354 29.7972L97.1635 30.8793C97.0046 31.0788 96.8683 31.1808 96.7503 31.1941C96.6322 31.2074 96.496 31.1542 96.3416 31.0345L85.4881 22.9897C85.3337 22.87 85.2474 22.7547 85.2338 22.6394C85.2202 22.5241 85.2928 22.3688 85.4518 22.1737L86.3237 21.0916C86.4735 20.9053 86.6052 20.8078 86.7188 20.7989C86.8323 20.79 86.9685 20.8521 87.1366 20.9807L91.4053 24.1428L92.7949 22.4176L88.7214 19.4064C88.5307 19.26 88.4263 19.127 88.4126 18.9984C88.399 18.8742 88.458 18.7234 88.5988 18.5504L95.3334 9.92914C95.4742 9.75618 95.6059 9.65861 95.733 9.64531C95.8602 9.63201 96.0191 9.69409 96.2099 9.84044L97.4587 10.7984C97.6494 10.9447 97.7539 11.0778 97.7675 11.2064C97.7811 11.3305 97.7221 11.4813 97.5813 11.6543L95.6649 14.1067L102.586 19.2512L104.666 16.812C104.815 16.6479 104.956 16.5548 105.074 16.537C105.197 16.5193 105.351 16.5814 105.542 16.7277L106.791 17.6857C106.982 17.832 107.086 17.9695 107.109 18.0981C107.131 18.2267 107.063 18.3731 106.913 18.5416L99.8019 26.8746C99.6521 27.0387 99.5113 27.1318 99.3932 27.1496C99.2706 27.1673 99.1162 27.1052 98.9255 26.9589L95.0655 24.1117H95.0746ZM92.0774 18.6835L98.8165 23.6594L100.896 21.2202L94.0619 16.1468L92.0774 18.6835Z" fill="white"/>
<path d="M105.692 29.2744C106.16 29.0039 106.686 28.831 107.268 28.76C107.849 28.689 108.458 28.76 109.098 28.9862C109.738 29.2124 110.388 29.6115 111.051 30.1969C111.714 30.7823 112.368 31.5939 112.999 32.636C113.635 33.6782 114.057 34.6228 114.266 35.4743C114.475 36.3258 114.529 37.0753 114.425 37.7317C114.32 38.388 114.098 38.9468 113.757 39.4125C113.417 39.8781 113.012 40.2462 112.54 40.5167C112.122 40.7606 111.659 40.9247 111.141 41.0179C110.624 41.111 110.088 41.0844 109.52 40.938C108.957 40.7917 108.376 40.5079 107.785 40.0866C107.195 39.6652 106.605 39.0754 106.019 38.3126L104.847 38.9912L107.667 43.4437C107.776 43.6211 107.817 43.763 107.795 43.8739C107.772 43.9803 107.658 44.0956 107.449 44.2154L106.241 44.9205C106.019 45.0491 105.851 45.0979 105.737 45.0713C105.624 45.0447 105.515 44.9471 105.415 44.783L98.2535 33.4609C98.1536 33.2968 98.1173 33.1549 98.1445 33.044C98.1717 32.9332 98.2989 32.8134 98.5214 32.6848L99.7294 31.9797C99.9383 31.8599 100.097 31.8156 100.202 31.8466C100.311 31.8777 100.415 31.9841 100.524 32.1615L103.344 36.6141L104.552 35.9134C104.148 35.0486 103.898 34.2592 103.798 33.5496C103.703 32.84 103.721 32.2103 103.862 31.6559C103.998 31.1016 104.234 30.6271 104.566 30.2279C104.897 29.8288 105.27 29.5095 105.683 29.27L105.692 29.2744ZM107.404 35.8956C107.731 36.4278 108.049 36.8491 108.367 37.1551C108.685 37.4611 108.989 37.6784 109.28 37.8115C109.57 37.9445 109.852 37.9978 110.115 37.9711C110.378 37.9445 110.624 37.8691 110.846 37.7405C111.069 37.6119 111.255 37.439 111.405 37.2217C111.555 37.0043 111.641 36.7427 111.659 36.4278C111.677 36.1129 111.627 35.7493 111.505 35.328C111.382 34.9111 111.16 34.4321 110.833 33.9C110.506 33.3678 110.188 32.9465 109.87 32.6405C109.552 32.3345 109.248 32.1172 108.957 31.9841C108.666 31.8511 108.385 31.7979 108.122 31.8245C107.854 31.8511 107.613 31.9265 107.39 32.0551C107.168 32.1837 106.982 32.3566 106.832 32.574C106.682 32.7913 106.596 33.0529 106.578 33.3678C106.559 33.6827 106.609 34.0463 106.732 34.4676C106.855 34.8845 107.077 35.3635 107.404 35.8956ZM115.492 29.5671L116.645 28.8975C116.841 28.7822 117 28.7423 117.127 28.7733C117.249 28.8043 117.376 28.9197 117.499 29.1237L118.312 30.4585C118.435 30.6625 118.48 30.8222 118.448 30.9464C118.416 31.0661 118.303 31.1859 118.108 31.2967L116.995 31.9442L119.86 36.4722C119.969 36.6496 120.01 36.7915 119.988 36.9023C119.965 37.0088 119.851 37.1241 119.643 37.2438L118.435 37.9445C118.212 38.0731 118.044 38.1219 117.93 38.0953C117.817 38.0687 117.708 37.9711 117.608 37.8071L110.329 26.2942C110.229 26.1301 110.192 25.9927 110.22 25.8774C110.247 25.7665 110.374 25.6468 110.596 25.5181L111.804 24.8174C112.013 24.6977 112.168 24.6533 112.277 24.6844C112.386 24.7154 112.49 24.8219 112.599 24.9993L115.487 29.5671H115.492Z" fill="white"/>
<path d="M103.83 51.9755C103.794 51.7404 103.816 51.5763 103.893 51.4832C103.971 51.3901 104.121 51.3191 104.343 51.2703L110.669 50.1528C110.891 50.104 111.055 50.1217 111.159 50.206C111.264 50.2902 111.332 50.4455 111.368 50.6805L111.6 52.215C111.636 52.45 111.614 52.6141 111.536 52.7072C111.459 52.8004 111.309 52.8713 111.087 52.9201L110.192 53.0709L111.291 59.4127L112.286 59.3151C112.513 59.2974 112.676 59.324 112.781 59.3905C112.88 59.457 112.953 59.6078 112.985 59.8429L113.217 61.3773C113.253 61.6124 113.23 61.7809 113.158 61.8918C113.08 61.9982 112.93 62.0603 112.703 62.0825L106.318 62.8053C106.091 62.8231 105.928 62.7965 105.823 62.7299C105.724 62.6634 105.651 62.5126 105.619 62.2776L103.83 51.9799V51.9755ZM106.573 53.7095L107.64 59.834L108.902 59.6965L107.826 53.5099L106.573 53.7139V53.7095ZM112.708 51.501C112.445 49.7758 112.567 48.3921 113.067 47.3455C113.566 46.3033 114.438 45.6913 115.682 45.5095C116.927 45.3277 117.944 45.6692 118.739 46.5251C119.533 47.381 120.065 48.6715 120.324 50.3967C120.419 51.0264 120.455 51.6118 120.442 52.1529C120.423 52.6939 120.364 53.1862 120.264 53.6341L121.145 58.8406L125.055 58.2774C125.278 58.2463 125.446 58.2641 125.546 58.3395C125.65 58.4149 125.718 58.5701 125.755 58.8007L125.986 60.3351C126.023 60.5702 126 60.7343 125.923 60.8363C125.846 60.9383 125.696 61.0048 125.469 61.0358L115.315 62.5038C115.092 62.5348 114.924 62.5171 114.824 62.4417C114.72 62.3663 114.652 62.2111 114.615 61.9805L114.384 60.446C114.347 60.211 114.37 60.0424 114.447 59.9449C114.524 59.8429 114.674 59.7763 114.901 59.7453L115.374 59.6788L114.706 55.7407C113.68 54.9335 113.017 53.5188 112.708 51.501ZM114.979 51.1728C115.097 51.9622 115.319 52.5786 115.637 53.0265C115.959 53.4745 116.377 53.6607 116.904 53.5809C117.426 53.5055 117.78 53.2084 117.962 52.6895C118.144 52.1706 118.176 51.5143 118.053 50.7249C117.93 49.9355 117.708 49.319 117.381 48.8711C117.054 48.4232 116.627 48.2414 116.105 48.3167C115.583 48.3921 115.233 48.6893 115.056 49.2081C114.879 49.727 114.856 50.3789 114.974 51.1683L114.979 51.1728ZM117.149 56.4147L117.64 59.3462L118.875 59.1688L118.362 56.0821C118.203 56.1487 118.039 56.2107 117.871 56.264C117.703 56.3172 117.522 56.3571 117.326 56.3881L117.145 56.4147H117.149ZM123.652 48.2813L124.978 48.0906C125.201 48.0595 125.369 48.0773 125.469 48.1527C125.573 48.2281 125.641 48.3833 125.678 48.6139L125.909 50.1483C125.946 50.3834 125.923 50.5475 125.846 50.6495C125.768 50.7515 125.619 50.818 125.391 50.849L124.134 51.0309L124.81 54.9025C124.842 55.1065 124.824 55.2528 124.765 55.346C124.701 55.4391 124.551 55.5012 124.311 55.5367L122.917 55.7362C122.662 55.7717 122.485 55.7584 122.394 55.6874C122.299 55.6165 122.24 55.4879 122.208 55.2972L120.373 44.7112C120.346 44.5205 120.364 44.3786 120.437 44.2855C120.505 44.1924 120.669 44.1303 120.923 44.0904L122.317 43.8908C122.558 43.8553 122.721 43.873 122.808 43.944C122.894 44.015 122.953 44.1524 122.985 44.3564L123.648 48.2724L123.652 48.2813Z" fill="white"/>
<path d="M120.937 82.2921C121.155 82.3497 121.3 82.4296 121.363 82.5404C121.427 82.6469 121.432 82.8154 121.363 83.046L120.959 84.545C120.896 84.7712 120.809 84.9175 120.7 84.984C120.587 85.0461 120.423 85.0506 120.205 84.9929L106.11 81.3652C105.892 81.3076 105.746 81.2277 105.683 81.1169C105.619 81.0104 105.615 80.8419 105.683 80.6113L106.087 79.1123C106.15 78.8817 106.237 78.7398 106.346 78.6733C106.459 78.6112 106.623 78.6067 106.841 78.6644L120.937 82.2921ZM110.174 69.7992L111.668 70.185C112.245 68.9122 113.021 68.043 113.989 67.5818C114.956 67.1205 115.969 67.0274 117.022 67.2979C117.635 67.4576 118.18 67.7148 118.657 68.074C119.134 68.4332 119.506 68.89 119.779 69.44C120.051 69.9899 120.215 70.6241 120.264 71.3425C120.314 72.0565 120.219 72.8592 119.978 73.7462C119.742 74.6154 119.424 75.356 119.016 75.9636C118.607 76.5712 118.148 77.0457 117.631 77.396C117.113 77.7464 116.559 77.9593 115.964 78.0435C115.369 78.1278 114.765 78.0923 114.152 77.9327C113.098 77.6621 112.263 77.0945 111.65 76.2341C111.037 75.3738 110.796 74.2562 110.932 72.8858L109.506 72.5177L108.444 76.8062C108.389 77.0058 108.317 77.1344 108.221 77.1965C108.126 77.2586 107.962 77.2541 107.731 77.1965L106.368 76.8461C106.119 76.784 105.964 76.6998 105.905 76.6022C105.846 76.5046 105.842 76.3583 105.892 76.1765L108.694 64.9253C108.743 64.739 108.821 64.6193 108.921 64.5572C109.02 64.4996 109.198 64.504 109.447 64.5661L110.81 64.9164C111.046 64.9785 111.187 65.0539 111.241 65.1515C111.291 65.249 111.291 65.3954 111.241 65.5994L110.178 69.7992H110.174ZM113.612 72.1053C113.38 72.9612 113.394 73.6619 113.657 74.203C113.916 74.744 114.325 75.0855 114.883 75.2274C115.437 75.3693 115.969 75.2673 116.468 74.9258C116.968 74.5844 117.335 73.9812 117.567 73.1209C117.803 72.2472 117.79 71.5465 117.526 71.0143C117.263 70.4777 116.854 70.1407 116.295 69.9987C115.737 69.8568 115.21 69.9544 114.715 70.2914C114.216 70.6285 113.852 71.2361 113.616 72.1053H113.612ZM123.748 73.2672L125.019 73.5954C125.237 73.653 125.382 73.7329 125.446 73.8437C125.51 73.9502 125.514 74.1187 125.446 74.3493L125.042 75.8483C124.978 76.0745 124.892 76.2208 124.783 76.2873C124.674 76.3494 124.506 76.3539 124.288 76.2962L123.057 75.9813L122.063 80.0126C122.008 80.2122 121.936 80.3408 121.84 80.4029C121.745 80.4605 121.581 80.4605 121.35 80.4029L119.987 80.0525C119.738 79.9904 119.583 79.9062 119.524 79.8086C119.465 79.711 119.461 79.5647 119.511 79.3828L122.208 68.5175C122.258 68.3312 122.335 68.2115 122.435 68.1539C122.535 68.0962 122.712 68.1006 122.962 68.1627L124.324 68.5131C124.556 68.5752 124.701 68.6506 124.756 68.7481C124.806 68.8457 124.806 68.992 124.756 69.196L123.752 73.2716L123.748 73.2672Z" fill="white"/>
<path d="M57.2736 121.043C57.2691 120.822 57.31 120.667 57.3962 120.573C57.4871 120.48 57.6506 120.436 57.8912 120.427L69.3033 119.957L69.1761 117.611L58.0366 118.077C57.7959 118.081 57.6278 118.041 57.5325 117.957C57.4371 117.873 57.3917 117.717 57.3826 117.496L57.3463 116.121C57.3417 115.899 57.3826 115.744 57.4689 115.651C57.5597 115.558 57.7232 115.513 57.9639 115.504L63.1817 115.291L63.1454 113.828L57.5643 114.05C57.3508 114.054 57.2055 114.023 57.1192 113.948C57.0329 113.877 56.9875 113.722 56.983 113.487L56.9467 112.112C56.9421 111.859 56.9785 111.695 57.0602 111.611C57.1419 111.526 57.2827 111.482 57.478 111.478L71.5466 110.923C71.7419 110.919 71.8827 110.954 71.9689 111.034C72.0552 111.114 72.1006 111.278 72.1052 111.531L72.1415 112.906C72.146 113.141 72.1097 113.296 72.028 113.376C71.9462 113.451 71.8009 113.491 71.5875 113.495L66.0064 113.717L66.0427 115.181L71.2605 114.968C71.5012 114.963 71.6647 115.003 71.751 115.087C71.8372 115.176 71.8917 115.327 71.9099 115.549L72.2687 121.837C72.2914 122.059 72.2505 122.214 72.1551 122.307C72.0598 122.401 71.8917 122.445 71.6465 122.454L57.9412 123.004C57.7005 123.008 57.5325 122.968 57.4371 122.884C57.3418 122.8 57.2963 122.644 57.2873 122.423L57.2509 121.048L57.2736 121.043ZM64.2852 101.756C65.2707 101.734 66.1244 101.818 66.8601 102.018C67.5912 102.213 68.1952 102.497 68.6766 102.861C69.1579 103.224 69.5122 103.659 69.7528 104.156C69.9935 104.652 70.1207 105.189 70.1343 105.765C70.1479 106.342 70.048 106.883 69.8346 107.393C69.6211 107.899 69.2851 108.351 68.8219 108.737C68.3632 109.127 67.7774 109.433 67.0599 109.664C66.3424 109.894 65.4887 110.023 64.4896 110.045C63.4905 110.067 62.6277 109.983 61.9057 109.783C61.1836 109.584 60.5796 109.304 60.1028 108.941C59.626 108.573 59.2672 108.143 59.0265 107.646C58.7858 107.149 58.6587 106.613 58.6451 106.036C58.6314 105.459 58.7314 104.918 58.9448 104.408C59.1582 103.903 59.4943 103.45 59.9575 103.065C60.4161 102.674 61.002 102.368 61.7195 102.133C62.4324 101.903 63.2907 101.774 64.2898 101.752L64.2852 101.756ZM64.3443 104.107C63.3906 104.129 62.6958 104.311 62.2553 104.657C61.8148 105.003 61.6059 105.437 61.6196 105.969C61.6332 106.502 61.8648 106.927 62.3189 107.251C62.773 107.575 63.4769 107.721 64.4306 107.699C65.3842 107.677 66.079 107.495 66.5195 107.149C66.9555 106.808 67.1689 106.369 67.1553 105.836C67.1417 105.304 66.9101 104.879 66.4514 104.555C65.9973 104.231 65.2934 104.085 64.3397 104.107H64.3443Z" fill="white"/>
<path d="M50.8298 114.631C51.0568 114.711 51.1976 114.809 51.243 114.92C51.293 115.031 51.2839 115.195 51.2203 115.407L49.3857 120.986C49.3221 121.199 49.2313 121.332 49.1086 121.386C48.986 121.439 48.8089 121.421 48.5819 121.341L35.5986 117.022C35.3715 116.942 35.2262 116.844 35.1626 116.729C35.0991 116.614 35.1172 116.454 35.2081 116.25L37.4287 110.809C37.5195 110.605 37.6194 110.476 37.7284 110.418C37.8374 110.361 38.0054 110.374 38.2325 110.454L50.8298 114.636V114.631ZM54.767 101.828C54.9532 101.895 55.0667 101.974 55.1076 102.076C55.1484 102.178 55.1348 102.351 55.0622 102.591L53.8179 106.369C53.7498 106.595 53.6635 106.728 53.5545 106.76C53.4455 106.791 53.2911 106.782 53.0867 106.724L43.4004 103.797L43.0416 104.64L53.1231 107.988C53.3093 108.055 53.4273 108.139 53.4773 108.241C53.5272 108.343 53.5091 108.516 53.4228 108.751L53.0322 109.815C52.9505 110.037 52.8597 110.17 52.7552 110.214C52.6508 110.254 52.5009 110.241 52.3011 110.174L47.5056 108.587L47.1241 109.629L52.4328 111.398C52.619 111.465 52.7371 111.549 52.787 111.651C52.837 111.753 52.8188 111.926 52.7325 112.161L52.2966 113.35C52.2148 113.571 52.124 113.704 52.0196 113.749C51.9151 113.789 51.7652 113.775 51.5654 113.709L38.2824 109.287C38.0826 109.216 37.9555 109.132 37.9055 109.039C37.851 108.941 37.8692 108.782 37.9509 108.56L38.3869 107.372C38.4732 107.137 38.5731 106.99 38.6775 106.941C38.782 106.893 38.9318 106.901 39.1135 106.964L44.4221 108.733L44.8036 107.691L39.9854 106.094C39.7856 106.023 39.6584 105.939 39.5948 105.842C39.5358 105.74 39.554 105.584 39.6493 105.367L41.2251 101.677C41.325 101.447 41.4249 101.309 41.5203 101.265C41.6157 101.22 41.761 101.225 41.9517 101.274L51.5518 104.17L51.8379 103.327L42.6965 100.307C42.4967 100.236 42.3695 100.152 42.3196 100.059C42.2696 99.9654 42.2832 99.8013 42.365 99.5795L42.7555 98.5152C42.8418 98.2801 42.9417 98.1382 43.0462 98.085C43.1551 98.0362 43.3005 98.0451 43.4821 98.1072L54.7761 101.832L54.767 101.828ZM47.9007 116.361L39.386 113.54L38.6639 115.314L47.3103 118.179L47.9052 116.361H47.9007Z" fill="white"/>
<path d="M29.5087 97.5039L30.9801 95.8452L26.8748 92.4836C26.7159 92.3506 26.6296 92.2264 26.616 92.1156C26.6024 92.0047 26.675 91.8628 26.834 91.6854L27.7558 90.6476C27.9239 90.4569 28.0692 90.3594 28.1873 90.3505C28.3053 90.3416 28.437 90.3993 28.5869 90.5279L39.0271 99.0782C39.1769 99.2024 39.2541 99.3266 39.2632 99.4375C39.2723 99.5483 39.1906 99.7036 39.0225 99.8942L38.1007 100.932C37.9417 101.109 37.8055 101.203 37.692 101.203C37.5784 101.203 37.4422 101.14 37.2833 101.003L33.178 97.6414L31.7067 99.3L35.6257 102.502C35.8074 102.657 35.9073 102.799 35.9118 102.923C35.9209 103.047 35.8528 103.194 35.7029 103.362L28.546 111.655C28.3961 111.824 28.2599 111.913 28.1328 111.922C28.0056 111.93 27.8512 111.859 27.665 111.704L26.4661 110.689C26.2845 110.533 26.1891 110.391 26.18 110.267C26.171 110.143 26.2391 109.997 26.3889 109.828L28.4234 107.469L21.766 102.005L19.5681 104.342C19.4091 104.502 19.2683 104.586 19.1457 104.6C19.0231 104.613 18.8687 104.542 18.6871 104.387L17.4882 103.371C17.3065 103.216 17.2066 103.074 17.193 102.945C17.1794 102.817 17.2521 102.67 17.411 102.515L24.9267 94.5281C25.0856 94.3684 25.2264 94.2842 25.349 94.2709C25.4716 94.2576 25.626 94.3285 25.8077 94.4838L29.5178 97.5127L29.5087 97.5039ZM32.2289 103.07L25.7441 97.7833L23.5462 100.12L30.1173 105.513L32.2244 103.074L32.2289 103.07Z" fill="white"/>
<path d="M9.38216 91.0777L8.19691 91.6897C7.9971 91.7917 7.83362 91.8272 7.711 91.7917C7.58839 91.7562 7.47032 91.632 7.35679 91.4236L6.61203 90.0533C6.4985 89.8448 6.46217 89.6807 6.4985 89.561C6.53483 89.4412 6.65291 89.3304 6.85726 89.2239L8.00164 88.6297L5.36775 83.9687C5.26784 83.7868 5.23151 83.6405 5.25876 83.5341C5.28601 83.4276 5.40862 83.3167 5.62205 83.2103L6.86634 82.5673C7.0934 82.4475 7.26597 82.4076 7.37495 82.4431C7.48848 82.4786 7.58839 82.5806 7.68376 82.7491L14.3775 94.5945C14.4683 94.763 14.5001 94.905 14.4638 95.0158C14.4274 95.1267 14.3003 95.2376 14.0732 95.3573L12.8289 96.0004C12.6155 96.1112 12.4566 96.1467 12.3476 96.1112C12.2431 96.0758 12.1387 95.9649 12.0388 95.783L9.38216 91.0866V91.0777ZM19.1503 91.8405C18.6689 92.0888 18.1376 92.2352 17.5518 92.2795C16.966 92.3239 16.362 92.2174 15.7353 91.9647C15.1086 91.7119 14.4774 91.2773 13.8462 90.6608C13.2104 90.0444 12.6019 89.2018 12.0206 88.1285C11.4393 87.0597 11.0669 86.093 10.8989 85.2326C10.7309 84.3722 10.7173 83.6183 10.8535 82.9708C10.9897 82.3233 11.2395 81.7734 11.6073 81.3255C11.9706 80.8776 12.393 80.5272 12.8743 80.2789C13.3012 80.0571 13.778 79.9108 14.2957 79.8443C14.8134 79.7733 15.3538 79.8265 15.9079 79.9995C16.4619 80.1725 17.025 80.4829 17.5972 80.9308C18.1648 81.3787 18.7279 81.9996 19.2729 82.7846L20.4763 82.1593L17.8833 77.5781C17.7834 77.3962 17.747 77.2499 17.7743 77.1435C17.8015 77.037 17.9242 76.9262 18.1376 76.8153L19.3819 76.1722C19.6089 76.0569 19.7815 76.0126 19.8905 76.0481C20.004 76.0835 20.1039 76.1855 20.1993 76.3541L26.784 88.0044C26.8748 88.1729 26.9066 88.3148 26.8703 88.4257C26.834 88.5365 26.7023 88.6474 26.4752 88.7672L25.2309 89.4102C25.0175 89.5211 24.8586 89.5566 24.7496 89.5211C24.6451 89.4856 24.5407 89.3747 24.4408 89.1929L21.8477 84.6117L20.6035 85.2548C20.9622 86.1373 21.1756 86.9356 21.2347 87.6496C21.2983 88.3636 21.2438 88.9933 21.0803 89.5388C20.9168 90.0843 20.658 90.5499 20.3083 90.9313C19.9586 91.3127 19.5726 91.6143 19.1412 91.8361L19.1503 91.8405ZM17.7743 85.1483C17.4746 84.5984 17.1749 84.1638 16.8751 83.8445C16.5709 83.5252 16.2802 83.2901 15.9941 83.1438C15.708 82.9974 15.4356 82.9309 15.1676 82.9442C14.8997 82.9575 14.6545 83.024 14.4274 83.1394C14.2004 83.2591 14.0051 83.4188 13.8462 83.6272C13.6872 83.8356 13.5873 84.0973 13.551 84.4077C13.5147 84.7182 13.551 85.0862 13.6509 85.512C13.7508 85.9377 13.9506 86.4211 14.2503 86.971C14.55 87.521 14.8498 87.9556 15.1495 88.2749C15.4537 88.5942 15.7444 88.8292 16.0305 88.9756C16.3166 89.1219 16.589 89.1885 16.857 89.1752C17.1249 89.1619 17.3701 89.0953 17.5972 88.98C17.8242 88.8647 18.0195 88.7006 18.1785 88.4922C18.3374 88.2838 18.4373 88.0221 18.4736 87.7117C18.51 87.4012 18.4736 87.0331 18.3737 86.6074C18.2738 86.1816 18.0695 85.6982 17.7743 85.1483Z" fill="white"/>
<path d="M2.17076 71.986L0.835651 72.1146C0.608591 72.1368 0.445108 72.1057 0.349743 72.0259C0.249836 71.9461 0.190801 71.7864 0.163554 71.5514L0.00915302 70.008C-0.013553 69.773 0.0136942 69.6045 0.0954357 69.5113C0.177177 69.4138 0.331578 69.3561 0.558638 69.3339L1.82563 69.2142L1.34426 65.316C1.32156 65.112 1.34426 64.9612 1.41238 64.8725C1.4805 64.7838 1.6349 64.7306 1.87558 64.704L3.27427 64.5709C3.52858 64.5443 3.70569 64.5709 3.79651 64.6419C3.88733 64.7173 3.94183 64.8459 3.95999 65.0366L5.25878 75.6979C5.27694 75.8886 5.24969 76.0305 5.17703 76.1192C5.10437 76.2079 4.93635 76.2656 4.68204 76.2878L3.28335 76.4208C3.04267 76.443 2.87919 76.4208 2.79745 76.3454C2.71571 76.27 2.66121 76.1325 2.64305 75.9241L2.17984 71.9815L2.17076 71.986ZM13.2604 69.294C13.4329 71.0281 13.2467 72.4073 12.6927 73.4273C12.1432 74.4473 11.2395 75.015 9.9907 75.1347C8.74187 75.2544 7.73827 74.8686 6.98897 73.9728C6.23513 73.0814 5.77647 71.7642 5.59936 70.0302C5.53579 69.396 5.52671 68.8106 5.57212 68.274C5.61753 67.7374 5.69927 67.2451 5.82188 66.8017L5.20428 61.5597L1.27161 61.9367C1.04455 61.9588 0.881063 61.9278 0.785697 61.848C0.690332 61.7681 0.626756 61.6129 0.599508 61.3734L0.445108 59.8301C0.422402 59.5951 0.449649 59.4265 0.531391 59.3334C0.613132 59.2403 0.767533 59.1782 0.994593 59.156L11.2077 58.1759C11.4348 58.1537 11.5983 58.1848 11.6982 58.2646C11.7981 58.3444 11.8571 58.5041 11.8844 58.7391L12.0388 60.2825C12.0615 60.5175 12.0342 60.686 11.9525 60.7792C11.8708 60.8723 11.7164 60.9344 11.4893 60.9566L11.017 61.0009L11.4848 64.9656C12.4702 65.8216 13.0605 67.2673 13.2649 69.294H13.2604ZM9.07338 64.1718L8.73279 61.2182L7.4885 61.338L7.84726 64.4468C8.01074 64.3847 8.17422 64.3359 8.34225 64.2871C8.51481 64.2428 8.69646 64.2073 8.89173 64.1895L9.07338 64.1718ZM10.9761 69.5158C10.8944 68.7219 10.7082 68.0922 10.4085 67.631C10.1133 67.1698 9.70006 66.9657 9.17329 67.0145C8.64651 67.0633 8.27867 67.3471 8.06978 67.8571C7.86088 68.3672 7.7973 69.0191 7.87904 69.8129C7.96079 70.6067 8.15152 71.2365 8.45578 71.6977C8.76004 72.1589 9.17783 72.3629 9.70461 72.3142C10.2314 72.2654 10.5947 71.9815 10.7945 71.476C10.9943 70.966 11.0533 70.314 10.9761 69.5202V69.5158ZM22.152 69.2453C22.1747 69.4803 22.1475 69.6444 22.0657 69.7331C21.984 69.8218 21.8296 69.8839 21.6071 69.9238L15.2312 70.7354C15.0087 70.7708 14.8452 70.7487 14.7453 70.66C14.6454 70.5713 14.5819 70.4116 14.5591 70.1766L14.4047 68.6332C14.382 68.3982 14.4093 68.2341 14.491 68.1454C14.5728 68.0567 14.7272 67.9946 14.9497 67.9547L15.8534 67.8438L15.0768 61.4577L14.0778 61.5109C13.8507 61.5198 13.6872 61.4843 13.5873 61.4133C13.4874 61.3424 13.4284 61.1872 13.4057 60.9521L13.2513 59.4088C13.2286 59.1738 13.2558 59.0052 13.3376 58.8988C13.4193 58.7924 13.5737 58.7391 13.8008 58.7303L20.2175 58.3178C20.4445 58.309 20.608 58.3444 20.7079 58.4154C20.8078 58.4864 20.8669 58.6416 20.8896 58.8766L22.1611 69.2497L22.152 69.2453ZM19.5 67.3826L18.7416 61.2182L17.4701 61.2936L18.233 67.5245L19.4954 67.3826H19.5Z" fill="white"/>
<path d="M3.3243 47.0309L2.07093 46.6406C1.85295 46.5741 1.71671 46.4854 1.65768 46.3746C1.59864 46.2637 1.60318 46.0952 1.68039 45.869L2.16175 44.3878C2.23441 44.1616 2.32978 44.0197 2.44331 43.962C2.55684 43.9044 2.72032 43.9088 2.9383 43.9753L4.1508 44.3523L5.34513 40.3742C5.40871 40.1791 5.49045 40.0505 5.58581 39.9973C5.68118 39.9441 5.8492 39.9485 6.07626 40.0239L7.42046 40.4408C7.66568 40.5161 7.81554 40.6048 7.87003 40.7068C7.92453 40.8088 7.91999 40.9508 7.86095 41.1326L4.61854 51.8516C4.5595 52.0334 4.47776 52.1531 4.37331 52.2064C4.26887 52.2596 4.0963 52.2463 3.84653 52.1709L2.50234 51.754C2.27074 51.683 2.1345 51.5988 2.08455 51.4968C2.03914 51.3992 2.04822 51.2484 2.1118 51.0533L3.3243 47.0309ZM6.58488 38.1524C6.3669 38.0859 6.23066 37.9972 6.17163 37.8863C6.11259 37.7754 6.11713 37.6069 6.19433 37.3807L6.6757 35.8995C6.74836 35.6733 6.84372 35.5314 6.95725 35.4737C7.07078 35.4161 7.23427 35.4205 7.45224 35.487L21.3483 39.7888C21.5663 39.8554 21.7025 39.9441 21.7615 40.0549C21.8206 40.1658 21.816 40.3343 21.7388 40.5605L21.2575 42.0417C21.1848 42.2679 21.0895 42.4098 20.9759 42.4675C20.8624 42.5251 20.6944 42.5207 20.4809 42.4542L6.58488 38.1524ZM16.7072 51.1509L15.2359 50.6941C14.5955 51.9358 13.7781 52.7651 12.7836 53.182C11.7891 53.5989 10.7764 53.6432 9.73646 53.3195C9.13249 53.1332 8.60117 52.8494 8.14251 52.468C7.68384 52.0866 7.33417 51.6121 7.08895 51.0489C6.84372 50.4856 6.71203 49.8426 6.70295 49.1242C6.68932 48.4057 6.82556 47.6119 7.10711 46.7382C7.38413 45.8779 7.74288 45.155 8.17883 44.5696C8.61479 43.9842 9.1007 43.5274 9.63202 43.2037C10.1679 42.8799 10.731 42.6892 11.3304 42.636C11.9299 42.5828 12.5293 42.6449 13.1378 42.8356C14.1778 43.1593 14.9815 43.7624 15.5492 44.6538C16.1168 45.5452 16.2985 46.6717 16.0941 48.0332L17.5019 48.4678L18.7825 44.2325C18.8461 44.0374 18.9278 43.9088 19.0232 43.8556C19.1186 43.8024 19.2866 43.8068 19.5137 43.8822L20.8579 44.2991C21.1031 44.3744 21.2529 44.4631 21.3074 44.5651C21.3619 44.6671 21.3574 44.8091 21.2983 44.9909L17.9333 56.0913C17.8743 56.2731 17.7925 56.3928 17.6881 56.4461C17.5837 56.4993 17.4065 56.486 17.1613 56.4106L15.8171 55.9937C15.5855 55.9227 15.4493 55.8385 15.3993 55.7365C15.3539 55.6389 15.363 55.4881 15.4266 55.293L16.6981 51.1509H16.7072ZM13.3876 48.6807C13.6601 47.8336 13.6828 47.1373 13.4512 46.583C13.2196 46.0286 12.829 45.6694 12.2795 45.5009C11.73 45.3324 11.1987 45.4078 10.681 45.7271C10.1633 46.0464 9.76825 46.6318 9.49578 47.4744C9.21877 48.3348 9.19606 49.0355 9.4322 49.5809C9.66835 50.1264 10.0589 50.4856 10.6084 50.6542C11.1579 50.8227 11.6892 50.7517 12.2023 50.4369C12.7155 50.122 13.1151 49.5366 13.3921 48.6762L13.3876 48.6807Z" fill="white"/>
<path d="M86.2101 97.5569C86.7505 97.0247 87.4089 96.599 88.0265 96.1422C89.23 95.2552 90.3471 94.2796 91.4415 93.2729C92.0092 92.7496 92.6631 92.3593 93.426 92.173C94.5522 91.8936 95.5059 92.2307 96.287 93.029C96.5867 93.335 96.782 93.7208 96.9409 94.1111C97.0635 94.4215 97.009 94.7541 96.9863 95.0734C96.9455 95.7032 96.7911 96.3063 96.5731 96.9006C96.405 97.3662 96.3596 97.8585 96.3551 98.3508C96.346 99.2333 96.4959 100.107 96.5186 100.989C96.5549 102.324 95.6694 103.256 94.3025 103.318C93.921 103.336 93.5668 103.256 93.208 103.163C91.8956 102.821 90.5651 102.59 89.2073 102.515C88.7758 102.493 88.3444 102.573 87.913 102.515C87.2137 102.422 86.5643 102.218 86.0057 101.788C85.0838 101.078 84.9022 99.9163 85.3018 98.8785C85.5016 98.3552 85.8241 97.925 86.2055 97.5481L86.2101 97.5569Z" fill="white"/>
<path d="M103.421 96.2216C103.644 96.4567 103.821 96.7272 103.934 97.0465C104.229 97.8581 103.893 98.5455 103.194 99.0289C102.495 99.5079 101.7 99.6498 100.855 99.5921C100.197 99.5478 99.5565 99.4058 98.9889 99.0821C98.3531 98.7184 97.8036 98.2617 97.6265 97.5077C97.4948 96.949 97.6674 96.4744 98.0489 96.062C98.6211 95.4411 99.3794 95.2327 100.192 95.1706C101.3 95.0819 102.64 95.4012 103.421 96.2261V96.2216Z" fill="white"/>
<path d="M102.331 105.07C101.736 105.54 100.81 105.624 100.056 105.447C98.8799 105.167 97.9581 104.524 97.3632 103.482C97.0952 103.008 96.9862 102.502 97.1225 101.965C97.2678 101.38 97.6674 101.025 98.2215 100.799C98.7891 100.573 99.3658 100.613 99.9335 100.746C100.992 100.994 101.85 101.549 102.463 102.431C102.804 102.919 102.994 103.46 102.903 104.072C102.84 104.511 102.626 104.839 102.331 105.074V105.07Z" fill="white"/>
<path d="M88.0265 109.335C87.2681 108.595 87.2454 107.202 87.3998 106.249C87.536 105.397 87.8812 104.634 88.5578 104.045C89.0755 103.592 89.7113 103.517 90.288 103.867C90.6468 104.085 90.9056 104.404 91.0691 104.79C91.496 105.765 91.5368 106.759 91.2416 107.77C91.0963 108.267 90.8829 108.737 90.5332 109.136C89.9156 109.845 88.8394 110.058 88.0946 109.406C88.0719 109.384 88.0492 109.362 88.0265 109.34V109.335Z" fill="white"/>
<path d="M93.367 104.844C93.9438 104.067 94.7203 103.899 95.515 104.276C96.1417 104.573 96.5504 105.07 96.8728 105.655C97.3224 106.467 97.4677 107.327 97.2861 108.227C97.2089 108.622 97.0681 109.003 96.782 109.305C96.2734 109.837 95.7103 109.944 95.0019 109.7C94.4251 109.5 94.0346 109.101 93.7076 108.631C93.0628 107.7 92.8312 106.68 93.0764 105.575C93.1445 105.269 93.2762 104.981 93.3716 104.844H93.367Z" fill="white"/>
<path d="M38.1959 24.9019C37.5828 25.3453 36.8608 25.6735 36.1796 26.0327C34.8536 26.7334 33.5957 27.5317 32.3605 28.3699C31.7201 28.8045 31.0117 29.0928 30.2306 29.1682C29.0726 29.279 28.1826 28.8089 27.5332 27.8998C27.2879 27.5539 27.1517 27.1414 27.0563 26.7334C26.9791 26.4097 27.0881 26.0904 27.1562 25.7711C27.2925 25.1546 27.5422 24.5825 27.8465 24.0238C28.0872 23.5891 28.2053 23.1102 28.287 22.6179C28.4323 21.7443 28.4187 20.8617 28.5322 19.9836C28.7003 18.6576 29.7175 17.8682 31.0798 18.0057C31.4568 18.0456 31.7973 18.1742 32.1379 18.3206C33.3822 18.8527 34.6628 19.2741 35.9934 19.549C36.4157 19.6377 36.8562 19.62 37.274 19.7397C37.9507 19.9304 38.5637 20.232 39.0496 20.7375C39.8534 21.5713 39.8489 22.751 39.2994 23.7178C39.0178 24.2056 38.6364 24.5825 38.2004 24.8974L38.1959 24.9019Z" fill="white"/>
<path d="M20.9757 23.6954C20.794 23.4338 20.6578 23.1366 20.5942 22.804C20.4307 21.9614 20.8621 21.3272 21.6296 20.9547C22.3971 20.5822 23.2009 20.56 24.0274 20.7418C24.6722 20.8837 25.2807 21.1188 25.7939 21.5224C26.3661 21.9747 26.8384 22.5069 26.8974 23.2786C26.9428 23.8506 26.6976 24.2941 26.2571 24.6445C25.5941 25.1722 24.813 25.2654 24.0001 25.2121C22.8875 25.1367 21.616 24.6223 20.9711 23.6954H20.9757Z" fill="white"/>
<path d="M23.4143 15.1096C24.0728 14.7326 25.0038 14.7858 25.7213 15.0697C26.8429 15.5176 27.6558 16.2892 28.0827 17.4113C28.278 17.9168 28.3052 18.4357 28.0872 18.9457C27.8511 19.5045 27.4015 19.7972 26.8202 19.9347C26.2253 20.0766 25.6622 19.9524 25.1173 19.7351C24.1091 19.336 23.3462 18.6619 22.8739 17.6995C22.6105 17.1673 22.5061 16.6041 22.6878 16.0143C22.8194 15.5885 23.0783 15.2958 23.4098 15.1096H23.4143Z" fill="white"/>
<path d="M38.2095 12.9898C38.8453 13.8324 38.6546 15.2116 38.3548 16.1341C38.0915 16.9545 37.6283 17.6597 36.8699 18.1431C36.2886 18.5156 35.6483 18.4978 35.1351 18.0677C34.8127 17.7971 34.6084 17.4468 34.5039 17.0432C34.2314 16.0188 34.345 15.0298 34.79 14.0719C35.008 13.6018 35.2941 13.1716 35.6983 12.8257C36.4158 12.2137 37.5147 12.1649 38.1505 12.9144C38.1732 12.9366 38.1914 12.9632 38.2095 12.9898Z" fill="white"/>
<path d="M32.2379 16.6487C31.5476 17.3317 30.7529 17.3849 30.0263 16.8927C29.4541 16.5068 29.1272 15.9525 28.9001 15.3316C28.5822 14.4624 28.5686 13.5931 28.8865 12.7283C29.0227 12.3514 29.2225 11.9922 29.5541 11.7394C30.1399 11.287 30.7121 11.2649 31.3751 11.6108C31.9155 11.8902 32.2379 12.3425 32.4877 12.857C32.9827 13.8725 33.0553 14.9147 32.6421 15.9702C32.5285 16.2629 32.356 16.529 32.2379 16.6487Z" fill="white"/>
</g>
<defs>
<clipPath id="clip0_88_24">
<rect width="126" height="123" fill="white"/>
</clipPath>
</defs>
</svg>
