<svg width="226" height="50" viewBox="0 0 226 50" fill="none" xmlns="http://www.w3.org/2000/svg">
<path d="M81.9 14.44C81.9 14.74 81.84 14.95 81.72 15.07C81.6 15.19 81.38 15.25 81.06 15.25L65.97 15.52L66.06 18.7L80.79 18.43C81.11 18.43 81.33 18.49 81.45 18.61C81.57 18.73 81.63 18.94 81.63 19.24V21.1C81.63 21.4 81.57 21.61 81.45 21.73C81.33 21.85 81.11 21.91 80.79 21.91L73.89 22.03V24.01L81.27 23.89C81.55 23.89 81.74 23.94 81.84 24.04C81.96 24.14 82.02 24.35 82.02 24.67V26.53C82.02 26.87 81.96 27.1 81.84 27.22C81.74 27.32 81.56 27.37 81.3 27.37L62.7 27.67C62.44 27.67 62.25 27.62 62.13 27.52C62.03 27.4 61.98 27.17 61.98 26.83V24.97C61.98 24.65 62.03 24.44 62.13 24.34C62.25 24.24 62.45 24.19 62.73 24.19L70.11 24.07V22.09L63.21 22.21C62.89 22.21 62.67 22.15 62.55 22.03C62.45 21.91 62.39 21.7 62.37 21.4L62.1 12.88C62.08 12.58 62.13 12.37 62.25 12.25C62.39 12.13 62.62 12.07 62.94 12.07L81.06 11.77C81.38 11.77 81.6 11.83 81.72 11.95C81.84 12.07 81.9 12.28 81.9 12.58V14.44ZM72 40.3C70.7 40.3 69.57 40.15 68.61 39.85C67.65 39.57 66.86 39.17 66.24 38.65C65.62 38.15 65.16 37.56 64.86 36.88C64.56 36.2 64.41 35.47 64.41 34.69C64.41 33.91 64.56 33.18 64.86 32.5C65.16 31.82 65.62 31.23 66.24 30.73C66.86 30.21 67.64 29.81 68.58 29.53C69.54 29.23 70.68 29.08 72 29.08C73.32 29.08 74.45 29.23 75.39 29.53C76.35 29.81 77.14 30.21 77.76 30.73C78.38 31.23 78.84 31.82 79.14 32.5C79.44 33.18 79.59 33.91 79.59 34.69C79.59 35.47 79.44 36.2 79.14 36.88C78.84 37.56 78.38 38.15 77.76 38.65C77.14 39.17 76.35 39.57 75.39 39.85C74.45 40.15 73.32 40.3 72 40.3ZM72 37.12C73.26 37.12 74.18 36.89 74.76 36.43C75.36 35.99 75.66 35.41 75.66 34.69C75.66 33.97 75.36 33.39 74.76 32.95C74.18 32.49 73.26 32.26 72 32.26C70.74 32.26 69.81 32.49 69.21 32.95C68.63 33.39 68.34 33.97 68.34 34.69C68.34 35.41 68.63 35.99 69.21 36.43C69.81 36.89 70.74 37.12 72 37.12ZM88.3106 39.67C88.0506 39.67 87.8706 39.61 87.7706 39.49C87.6706 39.39 87.6106 39.17 87.5906 38.83L87.4106 33.46C87.3906 33.14 87.4406 32.94 87.5606 32.86C87.6806 32.76 87.8806 32.7 88.1606 32.68L101.541 32.08L101.601 30.85L87.5306 31.09C87.2706 31.09 87.0806 31.04 86.9606 30.94C86.8606 30.82 86.8106 30.59 86.8106 30.25V28.72C86.8106 28.4 86.8606 28.19 86.9606 28.09C87.0806 27.99 87.2806 27.94 87.5606 27.94L94.2506 27.82V26.32L86.8406 26.44C86.5806 26.44 86.3906 26.39 86.2706 26.29C86.1706 26.17 86.1206 25.94 86.1206 25.6V23.89C86.1206 23.57 86.1706 23.36 86.2706 23.26C86.3906 23.16 86.5906 23.11 86.8706 23.11L105.411 22.81C105.691 22.81 105.881 22.86 105.981 22.96C106.101 23.06 106.161 23.27 106.161 23.59V25.3C106.161 25.64 106.101 25.87 105.981 25.99C105.881 26.09 105.701 26.14 105.441 26.14L98.0306 26.26V27.76L104.751 27.64C105.031 27.64 105.231 27.69 105.351 27.79C105.471 27.89 105.521 28.1 105.501 28.42L105.231 33.82C105.211 34.16 105.151 34.38 105.051 34.48C104.951 34.58 104.771 34.64 104.511 34.66L91.2506 35.26L91.2806 36.46L104.031 36.22C104.311 36.22 104.501 36.27 104.601 36.37C104.721 36.47 104.781 36.68 104.781 37V38.53C104.781 38.87 104.721 39.09 104.601 39.19C104.501 39.31 104.321 39.37 104.061 39.37L88.3106 39.67ZM87.3506 21.61C87.0306 21.61 86.8106 21.55 86.6906 21.43C86.5906 21.31 86.5306 21.1 86.5106 20.8L86.2406 12.88C86.2206 12.58 86.2706 12.37 86.3906 12.25C86.5306 12.13 86.7606 12.07 87.0806 12.07L105.201 11.77C105.521 11.77 105.741 11.83 105.861 11.95C106.001 12.07 106.061 12.28 106.041 12.58L105.771 20.5C105.751 20.8 105.681 21.01 105.561 21.13C105.461 21.25 105.251 21.31 104.931 21.31L87.3506 21.61ZM90.2006 18.1L102.081 17.89L102.171 15.31L90.1106 15.52L90.2006 18.1ZM122.171 28.78V31.75L129.251 31.63C129.531 31.63 129.721 31.68 129.821 31.78C129.941 31.88 130.001 32.09 130.001 32.41V34.27C130.001 34.61 129.941 34.83 129.821 34.93C129.721 35.05 129.541 35.11 129.281 35.11L111.281 35.41C111.021 35.41 110.831 35.35 110.711 35.23C110.611 35.13 110.561 34.91 110.561 34.57V32.71C110.561 32.39 110.611 32.18 110.711 32.08C110.831 31.98 111.031 31.93 111.311 31.93L118.391 31.81V28.84L111.641 28.96C111.321 28.96 111.101 28.9 110.981 28.78C110.861 28.66 110.801 28.45 110.801 28.15L110.591 13.48C110.591 13.18 110.651 12.97 110.771 12.85C110.891 12.73 111.111 12.67 111.431 12.67H113.531C113.851 12.67 114.071 12.73 114.191 12.85C114.311 12.97 114.371 13.18 114.371 13.48L114.431 17.65L125.921 17.47L126.041 13.18C126.061 12.88 126.121 12.67 126.221 12.55C126.341 12.43 126.561 12.37 126.881 12.37H128.981C129.301 12.37 129.521 12.43 129.641 12.55C129.781 12.67 129.841 12.88 129.821 13.18L129.401 27.85C129.381 28.15 129.311 28.36 129.191 28.48C129.091 28.6 128.881 28.66 128.561 28.66L122.171 28.78ZM114.521 25.45L125.681 25.24L125.801 20.95L114.461 21.13L114.521 25.45ZM135.572 24.07C135.572 23.35 135.722 22.64 136.022 21.94C136.342 21.22 136.842 20.58 137.522 20.02C138.222 19.44 139.132 18.98 140.252 18.64C141.392 18.28 142.782 18.1 144.422 18.1C146.062 18.1 147.442 18.28 148.562 18.64C149.702 18.98 150.612 19.44 151.292 20.02C151.992 20.58 152.492 21.22 152.792 21.94C153.112 22.64 153.272 23.35 153.272 24.07C153.272 24.71 153.152 25.36 152.912 26.02C152.672 26.66 152.272 27.25 151.712 27.79C151.172 28.33 150.452 28.79 149.552 29.17C148.672 29.55 147.592 29.81 146.312 29.95V31.75L153.392 31.63C153.672 31.63 153.862 31.68 153.962 31.78C154.082 31.88 154.142 32.09 154.142 32.41V34.27C154.142 34.61 154.082 34.83 153.962 34.93C153.862 35.05 153.682 35.11 153.422 35.11L135.422 35.41C135.162 35.41 134.972 35.35 134.852 35.23C134.752 35.13 134.702 34.91 134.702 34.57V32.71C134.702 32.39 134.752 32.18 134.852 32.08C134.972 31.98 135.172 31.93 135.452 31.93L142.532 31.81V29.95C141.252 29.81 140.162 29.55 139.262 29.17C138.382 28.79 137.662 28.33 137.102 27.79C136.562 27.25 136.172 26.66 135.932 26.02C135.692 25.36 135.572 24.71 135.572 24.07ZM142.532 13.15V11.38C142.532 11.08 142.592 10.87 142.712 10.75C142.832 10.63 143.052 10.57 143.372 10.57H145.472C145.792 10.57 146.012 10.63 146.132 10.75C146.252 10.87 146.312 11.08 146.312 11.38V13.09L153.512 12.97C153.792 12.97 153.982 13.02 154.082 13.12C154.202 13.22 154.262 13.43 154.262 13.75V15.61C154.262 15.95 154.202 16.18 154.082 16.3C153.982 16.4 153.802 16.45 153.542 16.45L135.242 16.75C134.982 16.75 134.792 16.7 134.672 16.6C134.572 16.48 134.522 16.25 134.522 15.91V14.05C134.522 13.73 134.572 13.52 134.672 13.42C134.792 13.32 134.992 13.27 135.272 13.27L142.532 13.15ZM144.422 26.71C145.262 26.71 145.962 26.64 146.522 26.5C147.102 26.34 147.562 26.14 147.902 25.9C148.262 25.66 148.512 25.38 148.652 25.06C148.812 24.74 148.892 24.41 148.892 24.07C148.892 23.73 148.812 23.4 148.652 23.08C148.512 22.76 148.262 22.48 147.902 22.24C147.562 22 147.102 21.81 146.522 21.67C145.962 21.51 145.262 21.43 144.422 21.43C143.582 21.43 142.872 21.51 142.292 21.67C141.732 21.81 141.272 22 140.912 22.24C140.572 22.48 140.322 22.76 140.162 23.08C140.022 23.4 139.952 23.73 139.952 24.07C139.952 24.41 140.022 24.74 140.162 25.06C140.322 25.38 140.572 25.66 140.912 25.9C141.272 26.14 141.732 26.34 142.292 26.5C142.872 26.64 143.582 26.71 144.422 26.71ZM166.673 19.6C166.673 19.96 166.693 20.26 166.733 20.5C166.773 20.72 166.913 20.94 167.153 21.16L171.353 25.15C171.693 25.47 171.683 25.81 171.323 26.17L169.733 27.76C169.553 27.94 169.393 28.02 169.253 28C169.113 27.98 168.943 27.88 168.743 27.7L164.813 23.98L160.673 28.18C160.513 28.34 160.363 28.43 160.223 28.45C160.083 28.45 159.923 28.37 159.743 28.21L158.063 26.59C157.743 26.29 157.733 25.97 158.033 25.63L162.413 21.16C162.633 20.92 162.763 20.69 162.803 20.47C162.863 20.25 162.893 19.96 162.893 19.6V12.88C162.893 12.58 162.953 12.37 163.073 12.25C163.193 12.13 163.413 12.07 163.733 12.07H165.833C166.153 12.07 166.373 12.13 166.493 12.25C166.613 12.37 166.673 12.58 166.673 12.88V19.6ZM164.753 39.67C164.433 39.67 164.213 39.61 164.093 39.49C163.973 39.37 163.913 39.16 163.913 38.86V30.58C163.913 30.28 163.973 30.07 164.093 29.95C164.213 29.83 164.433 29.77 164.753 29.77H166.853C167.173 29.77 167.393 29.83 167.513 29.95C167.633 30.07 167.693 30.28 167.693 30.58V36.13L181.343 35.89C181.623 35.89 181.813 35.94 181.913 36.04C182.033 36.14 182.093 36.35 182.093 36.67V38.59C182.093 38.91 182.043 39.12 181.943 39.22C181.843 39.32 181.653 39.37 181.373 39.37L164.753 39.67ZM173.933 17.38V13.48C173.933 13.18 173.993 12.97 174.113 12.85C174.233 12.73 174.453 12.67 174.773 12.67H176.873C177.193 12.67 177.413 12.73 177.533 12.85C177.653 12.97 177.713 13.18 177.713 13.48V28.84C177.713 29.14 177.653 29.35 177.533 29.47C177.413 29.59 177.193 29.65 176.873 29.65H174.773C174.453 29.65 174.233 29.59 174.113 29.47C173.993 29.35 173.933 29.14 173.933 28.84V20.86L170.093 20.95C169.813 20.95 169.613 20.9 169.493 20.8C169.393 20.7 169.343 20.49 169.343 20.17V18.25C169.343 17.93 169.393 17.72 169.493 17.62C169.613 17.52 169.813 17.47 170.093 17.47L173.933 17.38ZM180.473 13.18C180.473 12.88 180.533 12.67 180.653 12.55C180.773 12.43 180.993 12.37 181.313 12.37H183.413C183.733 12.37 183.953 12.43 184.073 12.55C184.193 12.67 184.253 12.88 184.253 13.18V28.54C184.253 28.84 184.193 29.05 184.073 29.17C183.953 29.29 183.733 29.35 183.413 29.35H181.313C180.993 29.35 180.773 29.29 180.653 29.17C180.533 29.05 180.473 28.84 180.473 28.54V13.18ZM201.641 33.64C201.641 33.94 201.581 34.14 201.461 34.24C201.341 34.36 201.121 34.43 200.801 34.45L188.651 34.75C188.331 34.77 188.111 34.71 187.991 34.57C187.871 34.45 187.811 34.24 187.811 33.94L187.511 13.48C187.511 13.18 187.571 12.97 187.691 12.85C187.811 12.73 188.031 12.67 188.351 12.67L201.431 12.37C201.751 12.37 201.971 12.43 202.091 12.55C202.211 12.67 202.271 12.88 202.271 13.18V15.04C202.271 15.34 202.211 15.55 202.091 15.67C201.971 15.79 201.751 15.85 201.431 15.85L191.321 16.09L191.411 21.88L199.121 21.67C199.441 21.65 199.661 21.71 199.781 21.85C199.901 21.97 199.961 22.18 199.961 22.48V24.34C199.961 24.64 199.901 24.85 199.781 24.97C199.661 25.07 199.441 25.13 199.121 25.15L191.471 25.36L191.531 31.21L200.801 30.97C201.121 30.95 201.341 31.01 201.461 31.15C201.581 31.27 201.641 31.48 201.641 31.78V33.64ZM206.681 21.25V13.78C206.681 13.48 206.741 13.27 206.861 13.15C206.981 13.03 207.201 12.97 207.521 12.97H209.621C209.941 12.97 210.161 13.03 210.281 13.15C210.401 13.27 210.461 13.48 210.461 13.78V33.04C210.461 33.34 210.401 33.55 210.281 33.67C210.161 33.79 209.941 33.85 209.621 33.85H207.521C207.201 33.85 206.981 33.79 206.861 33.67C206.741 33.55 206.681 33.34 206.681 33.04V24.73L202.631 24.82C202.351 24.82 202.151 24.77 202.031 24.67C201.931 24.57 201.881 24.36 201.881 24.04V22.12C201.881 21.8 201.931 21.59 202.031 21.49C202.151 21.39 202.351 21.34 202.631 21.34L206.681 21.25Z" fill="#1D1D1D"/>
<path d="M24.9987 0C11.1941 0 0 11.1941 0 24.9987C0 38.8034 11.1941 49.9975 24.9987 49.9975C38.8034 49.9975 49.9975 38.8034 49.9975 24.9987C49.9975 11.1941 38.8059 0 24.9987 0ZM38.8313 7.01153C39.0523 6.73726 39.4535 6.69663 39.7252 6.91757C39.9969 7.1385 40.0376 7.5372 39.8166 7.80893C39.6922 7.96384 39.5094 8.0451 39.324 8.0451C39.1843 8.0451 39.0421 7.99939 38.9253 7.90289C38.651 7.68195 38.6104 7.28325 38.8313 7.01153ZM36.0734 5.19833C36.2537 4.89867 36.6423 4.79709 36.9445 4.9774C37.2441 5.1577 37.3432 5.54624 37.1654 5.84844C37.0461 6.04652 36.8353 6.15826 36.6194 6.15826C36.5077 6.15826 36.396 6.13033 36.2944 6.06938C35.9922 5.88907 35.8931 5.50053 36.0734 5.19833ZM33.0794 3.80923C33.214 3.48418 33.5847 3.32927 33.9098 3.46132C34.2323 3.59592 34.3872 3.96668 34.2552 4.29174C34.1536 4.53553 33.9174 4.68536 33.6685 4.68536C33.5873 4.68536 33.506 4.67012 33.4273 4.63711C33.1022 4.50251 32.9473 4.13175 33.0794 3.80923ZM29.9152 2.86962C29.999 2.52933 30.3444 2.32363 30.6846 2.40744C31.0249 2.49124 31.2332 2.83661 31.1468 3.17436C31.0757 3.46386 30.8167 3.65686 30.5323 3.65686C30.4815 3.65686 30.4307 3.65179 30.3799 3.63909C30.0396 3.55528 29.8314 3.20991 29.9152 2.86962ZM27.3427 1.83351C27.6931 1.86906 27.9471 2.17888 27.9141 2.52679C27.881 2.85693 27.6068 3.10072 27.2843 3.10072C27.2614 3.10072 27.2411 3.10072 27.2208 3.10072C26.8703 3.0677 26.6164 2.75788 26.6494 2.40744C26.6824 2.05699 26.9948 1.80304 27.3427 1.83605V1.83351ZM23.955 1.74971C24.3054 1.73447 24.6026 2.00366 24.6203 2.35411C24.6356 2.70456 24.3664 3.00168 24.0159 3.01945H23.9855C23.6477 3.01945 23.3684 2.75535 23.3506 2.41505C23.3354 2.0646 23.6046 1.76748 23.955 1.74971ZM20.5902 2.15603C20.933 2.09 21.2682 2.31347 21.3342 2.65631C21.4003 3.00168 21.1768 3.33435 20.834 3.40292C20.7933 3.41053 20.7527 3.41307 20.7121 3.41307C20.415 3.41307 20.1483 3.2023 20.0874 2.9001C20.0213 2.55727 20.2473 2.22205 20.5902 2.15603ZM17.3193 3.04739C17.6494 2.93057 18.0126 3.10326 18.1294 3.43339C18.2462 3.76352 18.0735 4.12667 17.7409 4.24349C17.6723 4.26888 17.6012 4.28158 17.5301 4.28158C17.2685 4.28158 17.0247 4.11651 16.9308 3.85748C16.814 3.52735 16.9892 3.1642 17.3193 3.04739ZM14.2135 4.40601C14.5233 4.24349 14.9068 4.36284 15.0719 4.67266C15.2344 4.98248 15.115 5.36594 14.8052 5.52847C14.7113 5.57926 14.6097 5.60465 14.5106 5.60465C14.2821 5.60465 14.0612 5.48022 13.9494 5.26436C13.7843 4.95454 13.9037 4.57108 14.2135 4.40601ZM11.3414 6.20397C11.6232 5.99573 12.0194 6.05922 12.2276 6.3411C12.4359 6.62553 12.3724 7.02169 12.0905 7.22739C11.9762 7.31119 11.8467 7.35182 11.7147 7.35182C11.5191 7.35182 11.3261 7.2604 11.2017 7.09025C10.996 6.80837 11.0569 6.41221 11.3414 6.20397ZM4.67012 13.7869C4.84027 13.4796 5.22627 13.3679 5.53101 13.5355C5.83829 13.7056 5.95002 14.0916 5.78242 14.3989C5.6656 14.6097 5.44974 14.7265 5.22627 14.7265C5.12215 14.7265 5.01803 14.7011 4.91899 14.6478C4.61171 14.4802 4.49997 14.0942 4.67012 13.7869ZM3.25562 16.8698C3.37752 16.5422 3.74321 16.3746 4.0708 16.4965C4.40093 16.6184 4.56854 16.9841 4.44411 17.3142C4.35014 17.5682 4.10635 17.7256 3.84987 17.7256C3.77622 17.7256 3.70004 17.7129 3.62893 17.685C3.2988 17.5631 3.13373 17.1974 3.25562 16.8698ZM2.30586 20.128C2.3795 19.7852 2.71725 19.5642 3.06008 19.6379C3.40292 19.7115 3.62131 20.0493 3.54767 20.3921C3.48418 20.6892 3.22007 20.8949 2.92803 20.8949C2.88486 20.8949 2.83915 20.8898 2.79344 20.8797C2.45315 20.806 2.23221 20.4708 2.30586 20.128ZM2.51917 22.891C2.86708 22.9138 3.13373 23.216 3.11087 23.5665C3.09056 23.9042 2.80867 24.1607 2.47854 24.1607H2.43791C2.08746 24.1378 1.82081 23.8356 1.84367 23.4852C1.86652 23.1347 2.16872 22.8706 2.51917 22.891ZM1.86906 26.8729C1.84113 26.5224 2.1027 26.2177 2.45315 26.1897C2.80106 26.1618 3.10833 26.4234 3.13627 26.7738C3.1642 27.1217 2.90264 27.429 2.55219 27.457H2.5014C2.1738 27.457 1.897 27.2055 1.86906 26.8729ZM3.00168 30.7177C2.71217 30.7177 2.45061 30.517 2.38458 30.225C2.30586 29.8822 2.51917 29.5419 2.862 29.4632C3.2023 29.3844 3.54259 29.5977 3.62131 29.9406C3.70004 30.2809 3.48672 30.6212 3.14389 30.6999C3.09818 30.7126 3.04993 30.7177 3.00168 30.7177ZM4.20539 33.8235C4.12921 33.8539 4.05048 33.8692 3.9743 33.8692C3.72035 33.8692 3.48164 33.7143 3.3826 33.4628C3.25562 33.1378 3.41561 32.7696 3.74321 32.6426C4.0708 32.5131 4.43903 32.6756 4.566 33.0032C4.69298 33.3283 4.53045 33.6965 4.20539 33.8235ZM5.70877 36.7591C5.60973 36.815 5.50053 36.8404 5.39387 36.8404C5.17548 36.8404 4.95962 36.7261 4.84281 36.5204C4.67012 36.2182 4.77424 35.8296 5.07898 35.6544C5.38372 35.4817 5.77226 35.5859 5.94494 35.8906C6.12017 36.1953 6.01351 36.5839 5.70877 36.7591ZM6.51887 10.9427C6.72965 10.6633 7.12835 10.61 7.40769 10.8208C7.68703 11.0341 7.74036 11.4302 7.52958 11.7096C7.40515 11.8747 7.21469 11.961 7.02423 11.961C6.88963 11.961 6.75504 11.9204 6.64076 11.8315C6.36142 11.6207 6.30555 11.222 6.51887 10.9427ZM7.62355 39.4433C7.50673 39.5348 7.3696 39.5779 7.23246 39.5779C7.04454 39.5779 6.85662 39.4941 6.73219 39.3341C6.51633 39.0573 6.56458 38.6586 6.84138 38.4428C7.11819 38.2269 7.51689 38.2752 7.73274 38.552C7.9486 38.8262 7.90035 39.2275 7.62355 39.4433ZM8.75616 8.39809C9.00757 8.15176 9.40881 8.1543 9.65514 8.40571C9.90147 8.65458 9.89639 9.05836 9.64752 9.30469C9.52308 9.42404 9.3631 9.48499 9.20311 9.48499C9.04312 9.48499 8.87297 9.4215 8.74854 9.29453C8.50475 9.04566 8.50729 8.64442 8.75616 8.39809ZM9.90655 41.8228C9.78211 41.9549 9.61451 42.0209 9.4469 42.0209C9.28945 42.0209 9.132 41.9625 9.01011 41.8457C8.75616 41.6019 8.746 41.2007 8.98725 40.9467C9.23104 40.6928 9.63228 40.6826 9.88623 40.9264C10.1402 41.1677 10.1503 41.5689 9.90655 41.8228ZM12.5121 43.8494C12.3876 44.0246 12.1921 44.116 11.9915 44.116C11.8645 44.116 11.7375 44.0804 11.6258 43.9992C11.3388 43.7986 11.2728 43.4024 11.476 43.1154C11.6766 42.8285 12.0753 42.7625 12.3597 42.9656C12.6467 43.1662 12.7127 43.5624 12.5121 43.8494ZM15.3817 45.4772C15.2699 45.6981 15.0465 45.8251 14.8154 45.8251C14.7189 45.8251 14.6198 45.8022 14.5284 45.7565C14.2161 45.5965 14.0916 45.2131 14.2491 44.9007C14.4091 44.5883 14.7925 44.4639 15.1049 44.6239C15.4172 44.7813 15.5417 45.1648 15.3817 45.4772ZM18.4595 46.6682C18.3707 46.9323 18.1243 47.0999 17.8577 47.0999C17.7917 47.0999 17.7231 47.0897 17.6571 47.0669C17.3244 46.9552 17.1441 46.5971 17.2558 46.2644C17.3676 45.9317 17.7282 45.7514 18.0608 45.8632C18.3935 45.9749 18.5713 46.3355 18.4595 46.6682ZM21.6771 47.3945C21.6237 47.7018 21.3546 47.9176 21.0524 47.9176C21.0168 47.9176 20.9787 47.9151 20.9406 47.9075C20.5953 47.8465 20.3667 47.5164 20.4277 47.171C20.4886 46.8256 20.8187 46.5971 21.1641 46.658C21.5095 46.719 21.7406 47.0491 21.6771 47.3945ZM24.3334 48.263C24.3334 48.263 24.3181 48.263 24.3105 48.263C23.9601 48.2528 23.6858 47.9582 23.6985 47.6103C23.7087 47.2574 24.0007 46.9831 24.3512 46.9958C24.7016 47.0059 24.9784 47.298 24.9657 47.651C24.9556 47.9938 24.6737 48.2655 24.3334 48.2655V48.263ZM27.6982 48.1259C27.6728 48.1309 27.65 48.1309 27.6271 48.1309C27.3071 48.1309 27.0329 47.8922 26.9948 47.5672C26.9567 47.2193 27.2081 46.9044 27.556 46.8663C27.9039 46.8256 28.2188 47.077 28.2569 47.425C28.2975 47.7729 28.0461 48.0878 27.6982 48.1259ZM31.03 47.5037C30.9741 47.5189 30.9208 47.524 30.8675 47.524C30.5856 47.524 30.3291 47.3361 30.2529 47.0517C30.164 46.7114 30.3672 46.366 30.705 46.2771C31.0453 46.1857 31.3906 46.3888 31.482 46.7266C31.5709 47.0669 31.3678 47.4148 31.03 47.5037ZM34.2349 46.399C34.1536 46.4346 34.0698 46.4498 33.986 46.4498C33.7397 46.4498 33.5035 46.3076 33.4019 46.0663C33.2622 45.7438 33.4121 45.3705 33.7346 45.2334C34.0571 45.0937 34.4304 45.2435 34.5675 45.566C34.7072 45.886 34.5574 46.2619 34.2349 46.399ZM37.2441 44.8398C37.14 44.9032 37.0257 44.9337 36.9115 44.9337C36.6982 44.9337 36.4899 44.8271 36.3706 44.6315C36.1877 44.3319 36.2791 43.9408 36.5788 43.7579C36.8759 43.5751 37.267 43.6691 37.4524 43.9662C37.6352 44.2658 37.5413 44.6569 37.2441 44.8398ZM39.9944 42.859C39.8751 42.958 39.7303 43.0088 39.5856 43.0088C39.4053 43.0088 39.2249 42.9301 39.1005 42.7802C38.8745 42.511 38.91 42.1098 39.1792 41.8863C39.4484 41.6603 39.8471 41.6959 40.0731 41.9651C40.2992 42.2342 40.2611 42.6355 39.9944 42.859ZM34.405 36.8277C31.2992 36.7921 28.9502 34.8469 29.2981 31.4262C28.5413 31.929 27.6779 32.2617 26.8018 32.5029C24.1074 33.2419 20.9279 33.3943 18.391 32.0839C17.9466 31.8553 17.6393 31.5227 17.1289 31.0351C17.0273 31.1468 16.9105 31.2332 16.7809 31.3119C15.7144 32.1322 14.4014 32.8965 13.0961 32.9346C11.6486 32.9753 10.1351 32.2947 9.4215 31.0326C8.7333 29.8136 8.87297 28.3077 9.13454 26.9338C9.97257 22.5583 11.961 18.2843 15.3461 15.3868C18.8506 12.3876 23.3963 11.8873 27.7795 12.86C29.74 13.2968 31.609 14.1221 33.374 15.4985C37.0664 18.3783 39.5449 22.8198 40.19 27.4468C40.7436 31.4338 39.5678 36.8835 34.4025 36.8251L34.405 36.8277ZM41.2972 9.20057C41.5562 8.9644 41.9574 8.97963 42.1961 9.23866C42.4323 9.49515 42.4171 9.89639 42.1581 10.1351C42.0362 10.2468 41.8813 10.3027 41.7289 10.3027C41.5562 10.3027 41.3861 10.2341 41.2616 10.097C41.0229 9.84052 41.0407 9.43928 41.2972 9.20057ZM42.4298 40.5023C42.3028 40.642 42.1301 40.7131 41.9549 40.7131C41.8051 40.7131 41.6552 40.6598 41.5333 40.5531C41.2718 40.3195 41.2489 39.9182 41.4826 39.6567C41.7162 39.3951 42.1174 39.3722 42.379 39.6059C42.6406 39.8395 42.6634 40.2407 42.4298 40.5023ZM48.0471 21.2682C48.103 21.6136 47.8668 21.9412 47.5215 21.9971C47.4859 22.0021 47.4529 22.0047 47.4199 22.0047C47.1126 22.0047 46.8434 21.7812 46.7926 21.4714C46.7368 21.1235 46.9729 20.7984 47.3183 20.7425C47.6637 20.6867 47.9913 20.9228 48.0471 21.2682ZM46.4676 17.5555C46.8002 17.4514 47.1583 17.6368 47.2624 17.9694C47.3691 18.3046 47.1837 18.6602 46.8485 18.7668C46.785 18.7871 46.7215 18.7973 46.658 18.7973C46.3888 18.7973 46.1374 18.6246 46.0536 18.3529C45.947 18.0202 46.1324 17.6621 46.4676 17.5555ZM43.2551 12.6086C43.057 12.3191 43.1332 11.9229 43.4227 11.7248C43.7122 11.5267 44.1058 11.6004 44.3039 11.8924C44.502 12.1819 44.4284 12.5755 44.1389 12.7736C44.0271 12.8473 43.9027 12.8828 43.7808 12.8828C43.5776 12.8828 43.3796 12.7863 43.2551 12.606V12.6086ZM44.4995 37.8181C44.3776 38.0009 44.1744 38.1025 43.9687 38.1025C43.8494 38.1025 43.7275 38.0669 43.6208 37.9958C43.3262 37.8028 43.2475 37.4092 43.4405 37.1172C43.6335 36.8251 44.0271 36.7439 44.3192 36.9369C44.6112 37.1299 44.6925 37.5235 44.4995 37.8181ZM45.1572 14.5284C45.4721 14.3735 45.853 14.5056 46.0054 14.8205C46.1603 15.1354 46.0282 15.5163 45.7133 15.6686C45.6245 15.7144 45.528 15.7347 45.4365 15.7347C45.2004 15.7347 44.9743 15.6026 44.8652 15.3766C44.7102 15.0617 44.8423 14.6808 45.1572 14.5284ZM46.1577 34.8596C46.0511 35.0907 45.8225 35.2253 45.5838 35.2253C45.4924 35.2253 45.401 35.2049 45.3146 35.1643C44.9972 35.017 44.8601 34.6386 45.0074 34.3212C45.1572 34.0038 45.5356 33.8666 45.853 34.0139C46.1704 34.1637 46.3076 34.5421 46.1577 34.8596ZM47.3691 31.6903C47.2853 31.9645 47.0339 32.1423 46.7596 32.1423C46.6987 32.1423 46.6377 32.1347 46.5768 32.1169C46.2416 32.0153 46.0511 31.6623 46.1527 31.3246C46.2517 30.9894 46.6072 30.7989 46.9425 30.9005C47.2777 30.9995 47.4681 31.3525 47.3691 31.6903ZM48.1005 28.3788C48.0548 28.6962 47.783 28.9222 47.4732 28.9222C47.4427 28.9222 47.4123 28.9222 47.3792 28.9172C47.0339 28.8664 46.7926 28.5439 46.8434 28.1959C46.8942 27.8506 47.2167 27.6093 47.5621 27.6601C47.91 27.7109 48.1513 28.0334 48.1005 28.3788ZM47.7094 25.6336C47.3589 25.6336 47.0745 25.3492 47.0745 24.9987C47.0745 24.9403 47.0821 24.8845 47.0974 24.8311C47.0821 24.7778 47.072 24.7219 47.072 24.6635C47.0669 24.3131 47.3462 24.0236 47.6967 24.0185C48.0471 24.0134 48.3366 24.2953 48.3417 24.6457C48.3417 24.7067 48.3341 24.7651 48.3189 24.8235C48.3341 24.8794 48.3442 24.9378 48.3442 24.9987C48.3442 25.3492 48.0598 25.6336 47.7094 25.6336Z" fill="#08441C"/>
<path d="M36.2944 6.06962C36.3959 6.13057 36.5077 6.1585 36.6194 6.1585C36.8353 6.1585 37.0461 6.04676 37.1654 5.84868C37.3432 5.54648 37.2441 5.15794 36.9445 4.97764C36.6423 4.79733 36.2537 4.89891 36.0734 5.19857C35.8931 5.50077 35.9922 5.88931 36.2944 6.06962Z" fill="white"/>
<path d="M38.9251 7.90285C39.0419 7.99935 39.1841 8.04506 39.3238 8.04506C39.5091 8.04506 39.692 7.9638 39.8164 7.80889C40.0374 7.53717 39.9967 7.13847 39.725 6.91753C39.4533 6.6966 39.052 6.73723 38.8311 7.01149C38.6102 7.28322 38.6508 7.68192 38.9251 7.90285Z" fill="white"/>
<path d="M2.55235 27.4568C2.9028 27.4288 3.16437 27.1215 3.13644 26.7736C3.1085 26.4232 2.80122 26.1616 2.45331 26.1895C2.10287 26.2175 1.8413 26.5222 1.86923 26.8727C1.89717 27.2053 2.17397 27.4568 2.50157 27.4568H2.55235Z" fill="white"/>
<path d="M21.1643 46.6583C20.8189 46.5973 20.4888 46.8259 20.4278 47.1713C20.3669 47.5166 20.5954 47.8468 20.9408 47.9077C20.9789 47.9153 21.017 47.9179 21.0525 47.9179C21.3547 47.9179 21.6239 47.702 21.6772 47.3947C21.7407 47.0494 21.5096 46.7192 21.1643 46.6583Z" fill="white"/>
<path d="M27.5558 46.8661C27.2079 46.9042 26.9564 47.2191 26.9945 47.567C27.0326 47.8921 27.3069 48.1308 27.6269 48.1308C27.6497 48.1308 27.6726 48.1308 27.698 48.1257C28.0459 48.0876 28.2973 47.7727 28.2567 47.4248C28.2186 47.0769 27.9037 46.8255 27.5558 46.8661Z" fill="white"/>
<path d="M24.3513 46.9933C24.0009 46.9806 23.7088 47.2548 23.6987 47.6078C23.686 47.9557 23.9602 48.2503 24.3107 48.2605C24.3183 48.2605 24.3259 48.2605 24.3335 48.2605C24.6738 48.2605 24.9557 47.9887 24.9659 47.6459C24.9786 47.2929 24.7018 47.0009 24.3513 46.9907V46.9933Z" fill="white"/>
<path d="M39.1792 41.8861C38.91 42.1096 38.8745 42.5108 39.1005 42.78C39.2249 42.9298 39.4052 43.0086 39.5855 43.0086C39.7303 43.0086 39.875 42.9578 39.9944 42.8587C40.261 42.6353 40.2991 42.234 40.0731 41.9648C39.8471 41.6956 39.4484 41.6601 39.1792 41.8861Z" fill="white"/>
<path d="M33.7346 45.2335C33.4121 45.3706 33.2622 45.7439 33.4019 46.0664C33.5035 46.3077 33.7397 46.4499 33.986 46.4499C34.0698 46.4499 34.1536 46.4346 34.2349 46.3991C34.5574 46.262 34.7072 45.8861 34.5675 45.5661C34.4304 45.2436 34.0571 45.0938 33.7346 45.2335Z" fill="white"/>
<path d="M36.5786 43.758C36.279 43.9408 36.1876 44.3319 36.3704 44.6316C36.4898 44.8271 36.698 44.9338 36.9113 44.9338C37.0256 44.9338 37.1399 44.9033 37.244 44.8398C37.5411 44.657 37.6351 44.2659 37.4522 43.9662C37.2668 43.6691 36.8758 43.5751 36.5786 43.758Z" fill="white"/>
<path d="M30.7048 46.2773C30.3671 46.3662 30.1639 46.7115 30.2528 47.0518C30.329 47.3363 30.5855 47.5242 30.8674 47.5242C30.9207 47.5242 30.974 47.5191 31.0299 47.5039C31.3677 47.415 31.5708 47.0671 31.4819 46.7268C31.3905 46.389 31.0451 46.1859 30.7048 46.2773Z" fill="white"/>
<path d="M8.98747 40.9465C8.74622 41.2004 8.75637 41.6017 9.01032 41.8455C9.13222 41.9623 9.28967 42.0207 9.44711 42.0207C9.61472 42.0207 9.78233 41.9547 9.90676 41.8226C10.1506 41.5687 10.1404 41.1674 9.88645 40.9262C9.6325 40.6824 9.23126 40.6925 8.98747 40.9465Z" fill="white"/>
<path d="M33.4272 4.63696C33.506 4.66997 33.5872 4.68521 33.6685 4.68521C33.9174 4.68521 34.1535 4.53538 34.2551 4.29158C34.3872 3.96653 34.2323 3.59576 33.9097 3.46117C33.5847 3.32912 33.2139 3.48403 33.0793 3.80908C32.9473 4.1316 33.1022 4.50236 33.4272 4.63696Z" fill="white"/>
<path d="M6.84121 38.443C6.56441 38.6588 6.51616 39.0575 6.73202 39.3343C6.85645 39.4943 7.04437 39.5781 7.2323 39.5781C7.36943 39.5781 7.50656 39.5349 7.62338 39.4435C7.90018 39.2277 7.94843 38.8264 7.73258 38.5522C7.51672 38.2753 7.11802 38.2271 6.84121 38.443Z" fill="white"/>
<path d="M12.3599 42.9654C12.0754 42.7622 11.6767 42.8283 11.4761 43.1152C11.273 43.4022 11.339 43.7983 11.626 43.999C11.7377 44.0802 11.8647 44.1158 11.9916 44.1158C12.1923 44.1158 12.3878 44.0244 12.5122 43.8491C12.7129 43.5622 12.6468 43.166 12.3599 42.9654Z" fill="white"/>
<path d="M18.0608 45.8632C17.7281 45.7515 17.3675 45.9318 17.2558 46.2644C17.144 46.5971 17.3243 46.9552 17.657 47.0669C17.723 47.0898 17.7916 47.0999 17.8576 47.0999C18.1243 47.0999 18.3706 46.9323 18.4595 46.6682C18.5712 46.3355 18.3935 45.9749 18.0608 45.8632Z" fill="white"/>
<path d="M15.1051 44.624C14.7928 44.464 14.4093 44.5885 14.2493 44.9008C14.0919 45.2132 14.2163 45.5966 14.5287 45.7566C14.6201 45.8023 14.7191 45.8252 14.8156 45.8252C15.0467 45.8252 15.2702 45.6982 15.3819 45.4773C15.5419 45.1649 15.4175 44.7815 15.1051 44.624Z" fill="white"/>
<path d="M45.853 34.0137C45.5356 33.8665 45.1572 34.0036 45.0074 34.321C44.8601 34.6385 44.9972 35.0168 45.3147 35.1641C45.401 35.2048 45.4924 35.2251 45.5839 35.2251C45.8226 35.2251 46.0511 35.0905 46.1578 34.8594C46.3076 34.542 46.1705 34.1636 45.853 34.0137Z" fill="white"/>
<path d="M46.9426 30.9004C46.6074 30.7988 46.2519 30.9893 46.1528 31.3245C46.0512 31.6622 46.2417 32.0152 46.5769 32.1168C46.6379 32.1346 46.6988 32.1422 46.7598 32.1422C47.034 32.1422 47.2854 31.9644 47.3692 31.6902C47.4683 31.3524 47.2778 30.9994 46.9426 30.9004Z" fill="white"/>
<path d="M45.4366 15.7346C45.528 15.7346 45.6245 15.7143 45.7134 15.6685C46.0283 15.5162 46.1604 15.1352 46.0055 14.8204C45.8531 14.5055 45.4722 14.3734 45.1573 14.5283C44.8424 14.6807 44.7103 15.0616 44.8652 15.3765C44.9744 15.6025 45.2004 15.7346 45.4366 15.7346Z" fill="white"/>
<path d="M47.5619 27.6601C47.2165 27.6093 46.894 27.8505 46.8432 28.1959C46.7924 28.5438 47.0336 28.8663 47.379 28.9171C47.412 28.9171 47.4425 28.9222 47.473 28.9222C47.7828 28.9222 48.0545 28.6962 48.1002 28.3787C48.151 28.0334 47.9098 27.7109 47.5619 27.6601Z" fill="white"/>
<path d="M48.3187 24.8236C48.334 24.7652 48.3416 24.7068 48.3416 24.6459C48.3365 24.2954 48.047 24.0135 47.6966 24.0186C47.3461 24.0237 47.0668 24.3132 47.0718 24.6637C47.0718 24.7221 47.082 24.7779 47.0972 24.8313C47.082 24.8846 47.0744 24.9405 47.0744 24.9989C47.0744 25.3493 47.3588 25.6337 47.7093 25.6337C48.0597 25.6337 48.3441 25.3493 48.3441 24.9989C48.3441 24.9379 48.334 24.8795 48.3187 24.8236Z" fill="white"/>
<path d="M42.1582 10.1349C42.4172 9.89622 42.4324 9.49498 42.1963 9.23849C41.9575 8.97946 41.5563 8.96422 41.2973 9.2004C41.0408 9.43911 41.023 9.84035 41.2617 10.0968C41.3862 10.234 41.5563 10.3025 41.729 10.3025C41.8814 10.3025 42.0363 10.2467 42.1582 10.1349Z" fill="white"/>
<path d="M46.7929 21.4714C46.8436 21.7812 47.1128 22.0047 47.4201 22.0047C47.4531 22.0047 47.4861 22.0021 47.5217 21.9971C47.8671 21.9412 48.1032 21.6136 48.0474 21.2682C47.9915 20.9229 47.6639 20.6867 47.3185 20.7426C46.9732 20.7984 46.737 21.1235 46.7929 21.4714Z" fill="white"/>
<path d="M44.3191 36.9368C44.027 36.7438 43.6334 36.8251 43.4404 37.1171C43.2474 37.4092 43.3261 37.8028 43.6207 37.9958C43.7274 38.0669 43.8493 38.1025 43.9686 38.1025C44.1743 38.1025 44.3775 38.0009 44.4994 37.818C44.6924 37.5235 44.6111 37.1298 44.3191 36.9368Z" fill="white"/>
<path d="M41.4826 39.6565C41.249 39.918 41.2718 40.3193 41.5334 40.5529C41.6553 40.6596 41.8051 40.7129 41.955 40.7129C42.1302 40.7129 42.3029 40.6418 42.4298 40.5021C42.6635 40.2405 42.6406 39.8393 42.3791 39.6057C42.1175 39.372 41.7163 39.3949 41.4826 39.6565Z" fill="white"/>
<path d="M46.0536 18.3527C46.1374 18.6245 46.3888 18.7971 46.658 18.7971C46.7215 18.7971 46.785 18.787 46.8484 18.7667C47.1837 18.66 47.369 18.3045 47.2624 17.9693C47.1583 17.6366 46.8002 17.4512 46.4675 17.5553C46.1323 17.662 45.9469 18.0201 46.0536 18.3527Z" fill="white"/>
<path d="M43.7806 12.8828C43.9025 12.8828 44.0269 12.8473 44.1386 12.7736C44.4281 12.5755 44.5018 12.1819 44.3037 11.8924C44.1056 11.6004 43.712 11.5267 43.4225 11.7248C43.133 11.9229 43.0568 12.319 43.2549 12.6085C43.3793 12.7863 43.5774 12.8828 43.7806 12.8828Z" fill="white"/>
<path d="M9.64732 9.30225C9.89619 9.05846 9.90127 8.65468 9.65494 8.40581C9.40861 8.1544 9.00737 8.15186 8.75596 8.39819C8.50709 8.64453 8.50455 9.04576 8.74834 9.29463C8.87278 9.42161 9.03784 9.4851 9.20291 9.4851C9.36798 9.4851 9.52289 9.42415 9.64732 9.30225Z" fill="white"/>
<path d="M14.5106 5.60478C14.6096 5.60478 14.7112 5.57938 14.8051 5.53113C15.115 5.36607 15.2343 4.9826 15.0718 4.67278C14.9067 4.36297 14.5233 4.24361 14.2134 4.40614C13.9036 4.57121 13.7843 4.95467 13.9493 5.26449C14.0611 5.48034 14.282 5.60478 14.5106 5.60478Z" fill="white"/>
<path d="M20.7119 3.41314C20.7525 3.41314 20.7931 3.4106 20.8338 3.40298C21.1766 3.33441 21.4001 3.00174 21.334 2.65637C21.268 2.31354 20.9328 2.09006 20.59 2.15609C20.2471 2.22212 20.0211 2.55733 20.0871 2.90016C20.1481 3.20236 20.4147 3.41314 20.7119 3.41314Z" fill="white"/>
<path d="M4.91878 14.6477C5.01782 14.701 5.12194 14.7264 5.22606 14.7264C5.44954 14.7264 5.66539 14.6096 5.78221 14.3988C5.94982 14.0915 5.83808 13.7055 5.5308 13.5354C5.22606 13.3678 4.84006 13.4795 4.66991 13.7868C4.49977 14.0941 4.6115 14.4801 4.91878 14.6477Z" fill="white"/>
<path d="M11.7147 7.35178C11.8467 7.35178 11.9762 7.31114 12.0905 7.22734C12.3724 7.02164 12.4359 6.62548 12.2276 6.34106C12.0194 6.05918 11.6232 5.99569 11.3414 6.20393C11.0569 6.41216 10.996 6.80832 11.2017 7.09021C11.3261 7.26035 11.5191 7.35178 11.7147 7.35178Z" fill="white"/>
<path d="M17.5301 4.28145C17.6012 4.28145 17.6723 4.26876 17.7409 4.24336C18.0735 4.12654 18.2462 3.7634 18.1294 3.43326C18.0126 3.10313 17.6494 2.93045 17.3193 3.04726C16.9892 3.16408 16.8139 3.52722 16.9308 3.85736C17.0247 4.11639 17.2685 4.28145 17.5301 4.28145Z" fill="white"/>
<path d="M30.3797 3.63902C30.4305 3.65171 30.4813 3.65679 30.5321 3.65679C30.8165 3.65679 31.0756 3.46379 31.1467 3.17429C31.233 2.83654 31.0248 2.49117 30.6845 2.40737C30.3442 2.32356 29.9988 2.52926 29.915 2.86955C29.8312 3.20984 30.0395 3.55521 30.3797 3.63902Z" fill="white"/>
<path d="M27.2208 3.09822C27.2411 3.09822 27.2614 3.09822 27.2842 3.09822C27.6068 3.09822 27.881 2.85442 27.914 2.52429C27.947 2.17638 27.6931 1.86656 27.3426 1.83101C26.9947 1.798 26.6824 2.05195 26.6494 2.4024C26.6164 2.75285 26.8703 3.06266 27.2208 3.09568V3.09822Z" fill="white"/>
<path d="M23.9856 3.01938H24.0161C24.3665 3.00161 24.6357 2.70449 24.6205 2.35404C24.6027 2.00359 24.3056 1.7344 23.9551 1.74964C23.6047 1.76742 23.3355 2.06454 23.3507 2.41499C23.3685 2.75528 23.6478 3.01938 23.9856 3.01938Z" fill="white"/>
<path d="M3.62123 29.9405C3.54251 29.5977 3.20222 29.3844 2.86193 29.4631C2.5191 29.5418 2.30578 29.8821 2.3845 30.2224C2.45053 30.517 2.7121 30.7176 3.0016 30.7176C3.04985 30.7176 3.0981 30.7125 3.14381 30.6998C3.48664 30.6211 3.69996 30.2808 3.62123 29.9405Z" fill="white"/>
<path d="M2.43789 24.1605H2.47852C2.80866 24.1605 3.09054 23.904 3.11086 23.5663C3.13371 23.2158 2.86707 22.9136 2.51916 22.8907C2.16871 22.8704 1.86651 23.1345 1.84365 23.485C1.8208 23.8354 2.08744 24.1376 2.43789 24.1605Z" fill="white"/>
<path d="M3.743 32.6427C3.41541 32.7697 3.25542 33.1379 3.3824 33.463C3.48144 33.7144 3.72015 33.8693 3.9741 33.8693C4.05028 33.8693 4.12901 33.8541 4.20519 33.8236C4.53024 33.6966 4.69277 33.3284 4.5658 33.0033C4.43882 32.6757 4.0706 32.5132 3.743 32.6427Z" fill="white"/>
<path d="M7.0243 11.9608C7.21476 11.9608 7.40522 11.8745 7.52966 11.7119C7.74043 11.4301 7.68711 11.0339 7.40776 10.8206C7.12842 10.6098 6.72972 10.6631 6.51894 10.9425C6.30562 11.2218 6.36149 11.6205 6.64084 11.8313C6.75511 11.9202 6.88971 11.9608 7.0243 11.9608Z" fill="white"/>
<path d="M3.62873 17.6848C3.69983 17.7128 3.77602 17.7255 3.84966 17.7255C4.10615 17.7255 4.34994 17.568 4.4439 17.3141C4.56834 16.9839 4.40073 16.6182 4.0706 16.4963C3.743 16.3744 3.37732 16.5421 3.25542 16.8696C3.13353 17.1972 3.29859 17.5629 3.62873 17.6848Z" fill="white"/>
<path d="M2.79326 20.8795C2.83897 20.8897 2.88468 20.8947 2.92785 20.8947C3.21989 20.8947 3.484 20.689 3.54749 20.3919C3.62113 20.0491 3.40273 19.7113 3.0599 19.6377C2.71707 19.5641 2.37932 19.785 2.30568 20.1278C2.23203 20.4707 2.45297 20.8059 2.79326 20.8795Z" fill="white"/>
<path d="M5.94518 35.8907C5.77249 35.586 5.38395 35.4819 5.07921 35.6546C4.77447 35.8298 4.67035 36.2183 4.84304 36.5231C4.95986 36.7262 5.17571 36.8405 5.39411 36.8405C5.50077 36.8405 5.60996 36.8151 5.709 36.7592C6.01374 36.584 6.1204 36.1955 5.94518 35.8933V35.8907Z" fill="white"/>
<path d="M33.3767 15.5011C31.6118 14.1247 29.7427 13.2994 27.7822 12.8626C23.399 11.89 18.8534 12.3902 15.3489 15.3894C11.9637 18.2869 9.97277 22.5609 9.13728 26.9364C8.87317 28.3103 8.73604 29.8162 9.42424 31.0352C10.1378 32.2973 11.6488 32.9779 13.0989 32.9372C14.4016 32.8991 15.7171 32.1348 16.7837 31.3145C16.2885 30.7888 15.8669 30.2022 15.519 29.5648C14.6632 27.9954 14.3255 26.1543 14.6048 24.3868C14.8892 22.5736 15.778 20.8848 17.1062 19.6202C17.1062 19.6075 17.1062 19.5948 17.1113 19.5795C17.2281 19.1834 17.5684 18.3428 17.7588 17.9746C18.4343 16.6617 19.5187 15.5849 20.8392 14.9272C21.0957 14.8002 21.2633 15.2116 21.0094 15.336C19.4197 16.1284 18.028 18.0431 17.5227 19.7446C17.5176 19.8055 17.4871 19.864 17.4389 19.9071C16.7202 20.575 16.1361 21.3876 15.7171 22.2739C14.9756 23.8433 14.7597 25.621 15.1406 27.3174C15.453 28.7039 16.1488 30.0067 17.1316 31.0377C17.642 31.5253 17.9493 31.858 18.3937 32.0865C20.9332 33.3969 24.1101 33.2445 26.8045 32.5055C27.6781 32.2643 28.5415 31.9316 29.3008 31.4288C28.9529 34.8495 31.2994 36.7947 34.4077 36.8303C39.5731 36.8887 40.7488 31.4389 40.1952 27.4519C39.5527 22.825 37.0717 18.386 33.3792 15.5036L33.3767 15.5011ZM20.1841 20.5395C20.1383 19.4932 21.3421 18.9497 21.7103 20.1077C22.175 21.5781 20.2526 22.0987 20.1841 20.5395ZM25.164 26.0298C24.7018 26.8933 23.5286 27.2869 22.6499 26.8298C22.622 26.8501 22.589 26.8653 22.5534 26.8729C22.1801 26.9567 21.7535 26.8475 21.4741 26.5834C21.1897 26.3143 21.0424 25.9359 21.078 25.5448C21.0881 25.4204 21.2125 25.3442 21.3268 25.3543C21.4513 25.3645 21.5274 25.4889 21.5173 25.6032C21.5173 25.6235 21.5147 25.6438 21.5122 25.6641C21.5122 25.6667 21.5122 25.6692 21.5122 25.6718C21.5122 25.6718 21.5122 25.6718 21.5122 25.6768C21.5173 25.7149 21.5173 25.753 21.5224 25.7911C21.5249 25.8089 21.5274 25.8241 21.5325 25.8419C21.5325 25.8444 21.5376 25.8597 21.5376 25.8673C21.5452 25.8978 21.5554 25.9257 21.5681 25.9562C21.5808 25.9892 21.596 26.0197 21.6112 26.0501C21.6138 26.0552 21.6163 26.0603 21.6163 26.0628C21.6163 26.0654 21.6189 26.0679 21.6214 26.073C21.6316 26.0882 21.6392 26.1009 21.6493 26.1162C21.6697 26.1441 21.69 26.172 21.7128 26.1974C21.7204 26.2076 21.7306 26.2178 21.7382 26.2254C21.7433 26.2304 21.756 26.2406 21.7585 26.2457C21.789 26.2711 21.8195 26.2965 21.8525 26.3193C21.8525 26.3193 21.8728 26.332 21.8804 26.3396C21.8881 26.3447 21.9109 26.3574 21.9134 26.3574C21.9465 26.3752 21.9795 26.3879 22.0125 26.4006C22.0328 26.4082 22.0531 26.4158 22.0734 26.4235C22.076 26.4235 22.0785 26.4235 22.0811 26.4235C22.1547 26.4412 22.2283 26.4514 22.3045 26.4539C22.3045 26.4539 22.3045 26.4539 22.3071 26.4539C22.3096 26.4539 22.3121 26.4539 22.3198 26.4539C22.335 26.4539 22.3502 26.4539 22.3629 26.4514C22.1979 25.9917 22.2055 25.4889 22.3706 25.0369C22.1445 24.9836 21.9363 24.8871 21.789 24.6915C21.5706 24.4046 21.5655 24.0236 21.7179 23.7062C21.8728 23.3811 22.1928 23.1805 22.5432 23.1247C22.9216 23.0637 23.2645 23.2567 23.6327 23.2237C23.785 23.211 23.912 23.2466 24.0136 23.31C24.1584 23.3481 24.298 23.4142 24.425 23.5208C24.7069 23.757 24.8339 24.1608 24.7043 24.5087C24.4275 25.2578 23.5082 25.1639 22.8708 25.1055C22.8556 25.1055 22.8378 25.1029 22.8226 25.1004C22.6499 25.4965 22.6397 25.9587 22.8048 26.3625C22.8124 26.3803 22.8175 26.4006 22.82 26.4184C23.4727 26.7536 24.392 26.5276 24.7551 25.8521C24.811 25.7454 24.9278 25.6845 25.0472 25.7352C25.1513 25.7784 25.2199 25.9206 25.164 26.0273V26.0298ZM27.706 22.1393C27.221 23.6224 25.5094 22.6015 26.355 21.3115C27.0204 20.2957 28.0336 21.1439 27.706 22.1393ZM32.5818 21.6975C32.1831 22.4339 31.8225 23.1907 31.5026 23.9652C30.7102 25.8825 30.1693 28.2697 29.8951 30.5425C29.8798 30.6695 29.7732 30.7634 29.6437 30.7634C29.6437 30.7634 29.6411 30.7634 29.6386 30.7634C29.4887 30.7634 29.3719 30.6314 29.3897 30.4816C29.41 30.2962 29.4278 30.1235 29.4481 29.9762C29.8316 27.0228 30.7585 24.1379 32.1781 21.5197C32.2365 21.413 32.3507 21.3521 32.4701 21.4029C32.5742 21.4461 32.6428 21.5883 32.5869 21.6949L32.5818 21.6975Z" fill="#E8B483"/>
<path d="M32.4651 21.4054C32.3457 21.3546 32.2314 21.4155 32.173 21.5222C30.756 24.1404 29.8265 27.0253 29.4431 29.9787C29.4228 30.126 29.405 30.2961 29.3847 30.4841C29.3694 30.6339 29.4837 30.7634 29.6335 30.7659C29.6335 30.7659 29.6361 30.7659 29.6386 30.7659C29.7656 30.7659 29.8748 30.672 29.89 30.545C30.1643 28.2722 30.7052 25.885 31.4975 23.9677C31.8175 23.1932 32.1781 22.4364 32.5768 21.7C32.6327 21.5958 32.5641 21.4536 32.46 21.4079L32.4651 21.4054Z" fill="#391B0F"/>
<path d="M15.7171 22.274C16.1361 21.3877 16.7202 20.5751 17.4389 19.9072C17.4871 19.8615 17.5151 19.8031 17.5227 19.7447C18.028 18.0432 19.4197 16.1284 21.0094 15.3361C21.2634 15.2091 21.0957 14.7977 20.8393 14.9273C19.5187 15.585 18.4344 16.6643 17.7589 17.9746C17.5684 18.3429 17.2281 19.1809 17.1113 19.5796C17.1062 19.5923 17.1087 19.605 17.1062 19.6202C15.7781 20.8849 14.8918 22.5737 14.6048 24.3869C14.3255 26.1543 14.6632 27.9955 15.519 29.5649C15.8644 30.1997 16.2885 30.7889 16.7837 31.3146C16.9107 31.2359 17.03 31.1495 17.1316 31.0403C16.1488 30.0118 15.453 28.7091 15.1406 27.32C14.7597 25.6236 14.9756 23.8459 15.7171 22.2765V22.274Z" fill="#391B0F"/>
<path d="M21.7075 20.1077C21.3419 18.9497 20.1381 19.4932 20.1813 20.5394C20.2499 22.0987 22.1697 21.5781 21.7075 20.1077Z" fill="#391B0F"/>
<path d="M26.3522 21.3113C25.5091 22.6014 27.2181 23.6223 27.7032 22.1392C28.0282 21.1437 27.0175 20.2955 26.3522 21.3113Z" fill="#391B0F"/>
<path d="M25.0468 25.7378C24.9274 25.687 24.8132 25.748 24.7547 25.8546C24.3941 26.5301 23.4748 26.7536 22.8197 26.4209C22.8171 26.4032 22.812 26.3854 22.8044 26.3651C22.6393 25.9613 22.6495 25.4991 22.8222 25.1029C22.8374 25.1029 22.8552 25.1055 22.8704 25.108C23.5079 25.1664 24.4271 25.2604 24.704 24.5112C24.8335 24.1608 24.704 23.7596 24.4246 23.5234C24.2976 23.4167 24.1605 23.3482 24.0132 23.3126C23.9116 23.2466 23.7821 23.2136 23.6323 23.2263C23.2641 23.2593 22.9212 23.0663 22.5428 23.1272C22.1924 23.1831 21.8724 23.3862 21.7175 23.7088C21.5651 24.0262 21.5702 24.4046 21.7886 24.6941C21.9384 24.8896 22.1467 24.9861 22.3702 25.0395C22.2051 25.4915 22.1975 25.9943 22.3625 26.4539C22.3473 26.4539 22.3321 26.454 22.3194 26.4565C22.3118 26.4565 22.3092 26.4565 22.3067 26.4565C22.3067 26.4565 22.3067 26.4565 22.3041 26.4565C22.2279 26.4565 22.1543 26.4438 22.0807 26.426C22.0807 26.426 22.0756 26.426 22.073 26.426C22.0527 26.4184 22.0324 26.4133 22.0121 26.4032C21.9791 26.3905 21.9461 26.3752 21.9131 26.36C21.9105 26.36 21.8902 26.3473 21.88 26.3422C21.8699 26.3371 21.8521 26.3244 21.8521 26.3219C21.8191 26.299 21.7886 26.2736 21.7581 26.2483C21.7556 26.2457 21.7429 26.233 21.7378 26.2279C21.7277 26.2178 21.7201 26.2076 21.7124 26.2C21.6896 26.1746 21.6693 26.1467 21.6489 26.1187C21.6388 26.1035 21.6286 26.0908 21.621 26.0756C21.6185 26.0705 21.6159 26.0679 21.6159 26.0654C21.6159 26.0629 21.6134 26.0578 21.6109 26.0527C21.5956 26.0222 21.5804 25.9918 21.5677 25.9588C21.5575 25.9308 21.5474 25.9003 21.5372 25.8699C21.5372 25.8623 21.5321 25.8496 21.5321 25.8445C21.5296 25.8267 21.5245 25.8115 21.522 25.7937C21.5169 25.7556 21.5169 25.7175 21.5118 25.6794C21.5118 25.6769 21.5118 25.6769 21.5118 25.6743C21.5118 25.6718 21.5118 25.6692 21.5118 25.6667C21.5118 25.6464 21.5118 25.6261 21.5169 25.6058C21.5271 25.4915 21.4509 25.367 21.3264 25.3569C21.2122 25.3467 21.0877 25.4229 21.0776 25.5474C21.042 25.9384 21.1868 26.3168 21.4737 26.586C21.7531 26.8476 22.1797 26.9568 22.553 26.8755C22.5886 26.8679 22.619 26.8527 22.6495 26.8323C23.5282 27.292 24.7014 26.8984 25.1636 26.0324C25.2195 25.9257 25.1509 25.7861 25.0468 25.7404V25.7378Z" fill="#391B0F"/>
</svg>
